<?xml version="1.0" encoding="UTF-8"?>
<svg xmlns="http://www.w3.org/2000/svg" xmlns:xlink="http://www.w3.org/1999/xlink" width="722.25pt" height="255.749992pt" viewBox="0 0 722.25 255.749992" version="1.2">
<defs>
<clipPath id="clip1">
  <path d="M 580.449219 17.179688 L 670.035156 17.179688 L 670.035156 119.074219 L 580.449219 119.074219 Z M 580.449219 17.179688 "/>
</clipPath>
<clipPath id="clip2">
  <path d="M 520.464844 134.507812 L 572.296875 134.507812 L 572.296875 193.695312 L 520.464844 193.695312 Z M 520.464844 134.507812 "/>
</clipPath>
<clipPath id="clip3">
  <path d="M 622.511719 171.941406 L 687.671875 171.941406 L 687.671875 246.863281 L 622.511719 246.863281 Z M 622.511719 171.941406 "/>
</clipPath>
<clipPath id="clip4">
  <path d="M 592.066406 106.019531 L 658.695312 106.019531 L 658.695312 181.691406 L 592.066406 181.691406 Z M 592.066406 106.019531 "/>
</clipPath>
<clipPath id="clip5">
  <path d="M 381.171875 199.667969 L 417.445312 199.667969 L 417.445312 241.621094 L 381.171875 241.621094 Z M 381.171875 199.667969 "/>
</clipPath>
<clipPath id="clip6">
  <path d="M 280.964844 227.285156 L 297.996094 227.285156 L 297.996094 246.765625 L 280.964844 246.765625 Z M 280.964844 227.285156 "/>
</clipPath>
<clipPath id="clip7">
  <path d="M 316.785156 213.855469 L 334.558594 213.855469 L 334.558594 234.085938 L 316.785156 234.085938 Z M 316.785156 213.855469 "/>
</clipPath>
<clipPath id="clip8">
  <path d="M 360.882812 223.410156 L 384.585938 223.410156 L 384.585938 250.378906 L 360.882812 250.378906 Z M 360.882812 223.410156 "/>
</clipPath>
<clipPath id="clip9">
  <path d="M 639.882812 69.332031 L 721.328125 69.332031 L 721.328125 161.488281 L 639.882812 161.488281 Z M 639.882812 69.332031 "/>
</clipPath>
<clipPath id="clip10">
  <path d="M 411.324219 217.566406 L 436.496094 217.566406 L 436.496094 246.785156 L 411.324219 246.785156 Z M 411.324219 217.566406 "/>
</clipPath>
<clipPath id="clip11">
  <path d="M 497.238281 183.882812 L 539.449219 183.882812 L 539.449219 231.835938 L 497.238281 231.835938 Z M 497.238281 183.882812 "/>
</clipPath>
<clipPath id="clip12">
  <path d="M 298.136719 227.285156 L 315.898438 227.285156 L 315.898438 248.265625 L 298.136719 248.265625 Z M 298.136719 227.285156 "/>
</clipPath>
<clipPath id="clip13">
  <path d="M 426.417969 191.972656 L 447.894531 191.972656 L 447.894531 215.945312 L 426.417969 215.945312 Z M 426.417969 191.972656 "/>
</clipPath>
<clipPath id="clip14">
  <path d="M 537.382812 86.296875 L 579.59375 86.296875 L 579.59375 134.246094 L 537.382812 134.246094 Z M 537.382812 86.296875 "/>
</clipPath>
<clipPath id="clip15">
  <path d="M 674.800781 181.734375 L 717.011719 181.734375 L 717.011719 229.683594 L 674.800781 229.683594 Z M 674.800781 181.734375 "/>
</clipPath>
<clipPath id="clip16">
  <path d="M 447.914062 204.023438 L 486.410156 204.023438 L 486.410156 248.230469 L 447.914062 248.230469 Z M 447.914062 204.023438 "/>
</clipPath>
<clipPath id="clip17">
  <path d="M 469.863281 170.398438 L 503.183594 170.398438 L 503.183594 208.609375 L 469.863281 208.609375 Z M 469.863281 170.398438 "/>
</clipPath>
<clipPath id="clip18">
  <path d="M 335.074219 229.171875 L 355.0625 229.171875 L 355.0625 251.648438 L 335.074219 251.648438 Z M 335.074219 229.171875 "/>
</clipPath>
<clipPath id="clip19">
  <path d="M 258.796875 232.574219 L 274.355469 232.574219 L 274.355469 250.558594 L 258.796875 250.558594 Z M 258.796875 232.574219 "/>
</clipPath>
<clipPath id="clip20">
  <path d="M 655.554688 134.179688 L 704.429688 134.179688 L 704.429688 189.621094 L 655.554688 189.621094 Z M 655.554688 134.179688 "/>
</clipPath>
<clipPath id="clip21">
  <path d="M 546.71875 167.210938 L 613.347656 167.210938 L 613.347656 242.882812 L 546.71875 242.882812 Z M 546.71875 167.210938 "/>
</clipPath>
<clipPath id="clip22">
  <path d="M 348.6875 206.761719 L 373.121094 206.761719 L 373.121094 234.484375 L 348.6875 234.484375 Z M 348.6875 206.761719 "/>
</clipPath>
<clipPath id="clip23">
  <path d="M 298.984375 212.078125 L 325.632812 212.078125 L 325.632812 242.796875 L 298.984375 242.796875 Z M 298.984375 212.078125 "/>
</clipPath>
<clipPath id="clip24">
  <path d="M 518.554688 148.246094 L 545.941406 148.246094 L 545.941406 179.714844 L 518.554688 179.714844 Z M 518.554688 148.246094 "/>
</clipPath>
<clipPath id="clip25">
  <path d="M 558.925781 2.011719 L 625.554688 2.011719 L 625.554688 77.679688 L 558.925781 77.679688 Z M 558.925781 2.011719 "/>
</clipPath>
<clipPath id="clip26">
  <path d="M 631.96875 0.0078125 L 721.5 0.0078125 L 721.5 95.480469 L 631.96875 95.480469 Z M 631.96875 0.0078125 "/>
</clipPath>
</defs>
<g id="surface1">
<g clip-path="url(#clip1)" clip-rule="nonzero">
<path style=" stroke:none;fill-rule:nonzero;fill:rgb(30.589294%,10.198975%,13.729858%);fill-opacity:1;" d="M 664.351562 119.074219 L 609.347656 119.074219 C 606.230469 119.074219 603.65625 116.496094 603.65625 113.382812 C 603.65625 110.269531 606.230469 107.703125 609.347656 107.703125 L 658.65625 107.703125 L 658.65625 55.558594 L 625.246094 28.628906 L 591.839844 55.558594 L 591.839844 113.382812 C 591.839844 116.496094 589.253906 119.074219 586.144531 119.074219 C 583.023438 119.074219 580.449219 116.496094 580.449219 113.382812 L 580.449219 55.34375 C 580.449219 52.121094 581.953125 49.011719 584.421875 46.976562 L 618.472656 19.511719 C 622.34375 16.398438 628.039062 16.398438 631.902344 19.511719 L 666.0625 46.976562 C 668.640625 49.011719 670.035156 52.015625 670.035156 55.34375 L 670.035156 113.492188 C 670.035156 116.496094 667.460938 119.074219 664.351562 119.074219 "/>
</g>
<g clip-path="url(#clip2)" clip-rule="nonzero">
<path style=" stroke:none;fill-rule:nonzero;fill:rgb(30.589294%,10.198975%,13.729858%);fill-opacity:1;" d="M 569.007812 193.695312 L 537.1875 193.695312 C 535.382812 193.695312 533.890625 192.199219 533.890625 190.390625 C 533.890625 188.582031 535.382812 187.089844 537.1875 187.089844 L 565.710938 187.089844 L 565.710938 156.800781 L 546.382812 141.160156 L 527.054688 156.800781 L 527.054688 190.390625 C 527.054688 192.199219 525.558594 193.695312 523.757812 193.695312 C 521.953125 193.695312 520.464844 192.199219 520.464844 190.390625 L 520.464844 156.675781 C 520.464844 154.804688 521.335938 152.996094 522.761719 151.816406 L 542.464844 135.863281 C 544.703125 134.054688 548 134.054688 550.234375 135.863281 L 570 151.816406 C 571.488281 152.996094 572.296875 154.742188 572.296875 156.675781 L 572.296875 190.453125 C 572.296875 192.199219 570.808594 193.695312 569.007812 193.695312 "/>
</g>
<g clip-path="url(#clip3)" clip-rule="nonzero">
<path style=" stroke:none;fill-rule:nonzero;fill:rgb(30.589294%,10.198975%,13.729858%);fill-opacity:1;" d="M 683.535156 246.863281 L 643.53125 246.863281 C 641.265625 246.863281 639.390625 244.96875 639.390625 242.679688 C 639.390625 240.394531 641.265625 238.503906 643.53125 238.503906 L 679.394531 238.503906 L 679.394531 200.164062 L 655.09375 180.363281 L 630.796875 200.164062 L 630.796875 242.679688 C 630.796875 244.96875 628.917969 246.863281 626.65625 246.863281 C 624.386719 246.863281 622.511719 244.96875 622.511719 242.679688 L 622.511719 200.003906 C 622.511719 197.636719 623.605469 195.347656 625.402344 193.851562 L 650.167969 173.660156 C 652.984375 171.371094 657.125 171.371094 659.9375 173.660156 L 684.78125 193.851562 C 686.65625 195.347656 687.671875 197.558594 687.671875 200.003906 L 687.671875 242.761719 C 687.671875 244.96875 685.796875 246.863281 683.535156 246.863281 "/>
</g>
<g clip-path="url(#clip4)" clip-rule="nonzero">
<path style=" stroke:none;fill-rule:nonzero;fill:rgb(10.198975%,30.589294%,27.059937%);fill-opacity:1;" d="M 654.46875 181.691406 L 613.5625 181.691406 C 611.242188 181.691406 609.328125 179.777344 609.328125 177.464844 C 609.328125 175.152344 611.242188 173.246094 613.5625 173.246094 L 650.230469 173.246094 L 650.230469 134.523438 L 625.386719 114.523438 L 600.539062 134.523438 L 600.539062 177.464844 C 600.539062 179.777344 598.617188 181.691406 596.304688 181.691406 C 593.984375 181.691406 592.066406 179.777344 592.066406 177.464844 L 592.066406 134.363281 C 592.066406 131.972656 593.1875 129.660156 595.023438 128.148438 L 620.347656 107.753906 C 623.226562 105.441406 627.464844 105.441406 630.335938 107.753906 L 655.742188 128.148438 C 657.65625 129.660156 658.695312 131.890625 658.695312 134.363281 L 658.695312 177.546875 C 658.695312 179.777344 656.78125 181.691406 654.46875 181.691406 "/>
</g>
<g clip-path="url(#clip5)" clip-rule="nonzero">
<path style=" stroke:none;fill-rule:nonzero;fill:rgb(30.589294%,10.198975%,13.729858%);fill-opacity:1;" d="M 415.140625 241.621094 L 392.875 241.621094 C 391.609375 241.621094 390.566406 240.5625 390.566406 239.28125 C 390.566406 238 391.609375 236.941406 392.875 236.941406 L 412.835938 236.941406 L 412.835938 215.46875 L 399.308594 204.382812 L 385.785156 215.46875 L 385.785156 239.28125 C 385.785156 240.5625 384.738281 241.621094 383.476562 241.621094 C 382.214844 241.621094 381.171875 240.5625 381.171875 239.28125 L 381.171875 215.382812 C 381.171875 214.054688 381.78125 212.773438 382.78125 211.9375 L 396.566406 200.628906 C 398.136719 199.347656 400.441406 199.347656 402.003906 200.628906 L 415.835938 211.9375 C 416.878906 212.773438 417.445312 214.011719 417.445312 215.382812 L 417.445312 239.324219 C 417.445312 240.5625 416.402344 241.621094 415.140625 241.621094 "/>
</g>
<g clip-path="url(#clip6)" clip-rule="nonzero">
<path style=" stroke:none;fill-rule:nonzero;fill:rgb(30.589294%,10.198975%,13.729858%);fill-opacity:1;" d="M 296.917969 246.765625 L 286.460938 246.765625 C 285.867188 246.765625 285.378906 246.273438 285.378906 245.679688 C 285.378906 245.082031 285.867188 244.59375 286.460938 244.59375 L 295.832031 244.59375 L 295.832031 234.625 L 289.484375 229.476562 L 283.132812 234.625 L 283.132812 245.679688 C 283.132812 246.273438 282.640625 246.765625 282.046875 246.765625 C 281.457031 246.765625 280.964844 246.273438 280.964844 245.679688 L 280.964844 234.582031 C 280.964844 233.96875 281.25 233.371094 281.722656 232.984375 L 288.195312 227.734375 C 288.929688 227.136719 290.011719 227.136719 290.746094 227.734375 L 297.242188 232.984375 C 297.730469 233.371094 297.996094 233.945312 297.996094 234.582031 L 297.996094 245.699219 C 297.996094 246.273438 297.507812 246.765625 296.917969 246.765625 "/>
</g>
<g clip-path="url(#clip7)" clip-rule="nonzero">
<path style=" stroke:none;fill-rule:nonzero;fill:rgb(30.589294%,10.198975%,13.729858%);fill-opacity:1;" d="M 333.429688 234.085938 L 322.519531 234.085938 C 321.902344 234.085938 321.390625 233.574219 321.390625 232.953125 C 321.390625 232.335938 321.902344 231.828125 322.519531 231.828125 L 332.300781 231.828125 L 332.300781 221.476562 L 325.671875 216.128906 L 319.046875 221.476562 L 319.046875 232.953125 C 319.046875 233.574219 318.535156 234.085938 317.917969 234.085938 C 317.296875 234.085938 316.785156 233.574219 316.785156 232.953125 L 316.785156 221.433594 C 316.785156 220.792969 317.085938 220.175781 317.574219 219.769531 L 324.328125 214.320312 C 325.097656 213.699219 326.226562 213.699219 326.992188 214.320312 L 333.769531 219.769531 C 334.28125 220.175781 334.558594 220.773438 334.558594 221.433594 L 334.558594 232.976562 C 334.558594 233.574219 334.046875 234.085938 333.429688 234.085938 "/>
</g>
<g clip-path="url(#clip8)" clip-rule="nonzero">
<path style=" stroke:none;fill-rule:nonzero;fill:rgb(4.708862%,22.349548%,19.60907%);fill-opacity:1;" d="M 383.082031 250.378906 L 368.53125 250.378906 C 367.707031 250.378906 367.023438 249.699219 367.023438 248.875 C 367.023438 248.050781 367.707031 247.371094 368.53125 247.371094 L 381.574219 247.371094 L 381.574219 233.566406 L 372.734375 226.441406 L 363.898438 233.566406 L 363.898438 248.875 C 363.898438 249.699219 363.214844 250.378906 362.390625 250.378906 C 361.566406 250.378906 360.882812 249.699219 360.882812 248.875 L 360.882812 233.511719 C 360.882812 232.660156 361.28125 231.835938 361.933594 231.296875 L 370.945312 224.027344 C 371.96875 223.203125 373.476562 223.203125 374.496094 224.027344 L 383.535156 231.296875 C 384.214844 231.835938 384.585938 232.628906 384.585938 233.511719 L 384.585938 248.902344 C 384.585938 249.699219 383.902344 250.378906 383.082031 250.378906 "/>
</g>
<g clip-path="url(#clip9)" clip-rule="nonzero">
<path style=" stroke:none;fill-rule:nonzero;fill:rgb(4.708862%,22.349548%,19.60907%);fill-opacity:1;" d="M 716.160156 161.488281 L 666.15625 161.488281 C 663.320312 161.488281 660.980469 159.15625 660.980469 156.339844 C 660.980469 153.527344 663.320312 151.203125 666.15625 151.203125 L 710.980469 151.203125 L 710.980469 104.046875 L 680.609375 79.691406 L 650.238281 104.046875 L 650.238281 156.339844 C 650.238281 159.15625 647.886719 161.488281 645.058594 161.488281 C 642.222656 161.488281 639.882812 159.15625 639.882812 156.339844 L 639.882812 103.847656 C 639.882812 100.9375 641.25 98.121094 643.492188 96.28125 L 674.449219 71.441406 C 677.972656 68.628906 683.148438 68.628906 686.660156 71.441406 L 717.714844 96.28125 C 720.058594 98.121094 721.328125 100.839844 721.328125 103.847656 L 721.328125 156.4375 C 721.328125 159.15625 718.988281 161.488281 716.160156 161.488281 "/>
</g>
<g clip-path="url(#clip10)" clip-rule="nonzero">
<path style=" stroke:none;fill-rule:nonzero;fill:rgb(4.708862%,22.349548%,19.60907%);fill-opacity:1;" d="M 434.898438 246.785156 L 419.445312 246.785156 C 418.566406 246.785156 417.84375 246.046875 417.84375 245.15625 C 417.84375 244.261719 418.566406 243.527344 419.445312 243.527344 L 433.296875 243.527344 L 433.296875 228.574219 L 423.910156 220.851562 L 414.523438 228.574219 L 414.523438 245.15625 C 414.523438 246.046875 413.796875 246.785156 412.921875 246.785156 C 412.046875 246.785156 411.324219 246.046875 411.324219 245.15625 L 411.324219 228.511719 C 411.324219 227.589844 411.746094 226.695312 412.4375 226.113281 L 422.007812 218.238281 C 423.09375 217.34375 424.695312 217.34375 425.78125 218.238281 L 435.378906 226.113281 C 436.101562 226.695312 436.496094 227.558594 436.496094 228.511719 L 436.496094 245.1875 C 436.496094 246.046875 435.769531 246.785156 434.898438 246.785156 "/>
</g>
<g clip-path="url(#clip11)" clip-rule="nonzero">
<path style=" stroke:none;fill-rule:nonzero;fill:rgb(4.708862%,22.349548%,19.60907%);fill-opacity:1;" d="M 536.769531 231.835938 L 510.855469 231.835938 C 509.386719 231.835938 508.171875 230.621094 508.171875 229.15625 C 508.171875 227.691406 509.386719 226.484375 510.855469 226.484375 L 534.089844 226.484375 L 534.089844 201.945312 L 518.347656 189.273438 L 502.605469 201.945312 L 502.605469 229.15625 C 502.605469 230.621094 501.386719 231.835938 499.921875 231.835938 C 498.453125 231.835938 497.238281 230.621094 497.238281 229.15625 L 497.238281 201.84375 C 497.238281 200.328125 497.949219 198.863281 499.109375 197.90625 L 515.15625 184.984375 C 516.980469 183.519531 519.664062 183.519531 521.484375 184.984375 L 537.578125 197.90625 C 538.792969 198.863281 539.449219 200.277344 539.449219 201.84375 L 539.449219 229.207031 C 539.449219 230.621094 538.238281 231.835938 536.769531 231.835938 "/>
</g>
<g clip-path="url(#clip12)" clip-rule="nonzero">
<path style=" stroke:none;fill-rule:nonzero;fill:rgb(4.708862%,22.349548%,19.60907%);fill-opacity:1;" d="M 314.769531 248.265625 L 303.867188 248.265625 C 303.246094 248.265625 302.738281 247.734375 302.738281 247.09375 C 302.738281 246.453125 303.246094 245.921875 303.867188 245.921875 L 313.640625 245.921875 L 313.640625 235.1875 L 307.019531 229.644531 L 300.394531 235.1875 L 300.394531 247.09375 C 300.394531 247.734375 299.882812 248.265625 299.265625 248.265625 C 298.644531 248.265625 298.136719 247.734375 298.136719 247.09375 L 298.136719 235.144531 C 298.136719 234.480469 298.433594 233.839844 298.921875 233.421875 L 305.675781 227.765625 C 306.441406 227.125 307.570312 227.125 308.335938 227.765625 L 315.109375 233.421875 C 315.621094 233.839844 315.898438 234.457031 315.898438 235.144531 L 315.898438 247.117188 C 315.898438 247.734375 315.386719 248.265625 314.769531 248.265625 "/>
</g>
<g clip-path="url(#clip13)" clip-rule="nonzero">
<path style=" stroke:none;fill-rule:nonzero;fill:rgb(4.708862%,22.349548%,19.60907%);fill-opacity:1;" d="M 446.53125 215.945312 L 433.347656 215.945312 C 432.597656 215.945312 431.980469 215.339844 431.980469 214.609375 C 431.980469 213.875 432.597656 213.273438 433.347656 213.273438 L 445.164062 213.273438 L 445.164062 201.003906 L 437.15625 194.667969 L 429.148438 201.003906 L 429.148438 214.609375 C 429.148438 215.339844 428.527344 215.945312 427.785156 215.945312 C 427.035156 215.945312 426.417969 215.339844 426.417969 214.609375 L 426.417969 200.953125 C 426.417969 200.195312 426.777344 199.460938 427.371094 198.984375 L 435.535156 192.519531 C 436.460938 191.789062 437.828125 191.789062 438.753906 192.519531 L 446.941406 198.984375 C 447.558594 199.460938 447.894531 200.167969 447.894531 200.953125 L 447.894531 214.632812 C 447.894531 215.339844 447.277344 215.945312 446.53125 215.945312 "/>
</g>
<g clip-path="url(#clip14)" clip-rule="nonzero">
<path style=" stroke:none;fill-rule:nonzero;fill:rgb(4.708862%,22.349548%,19.60907%);fill-opacity:1;" d="M 576.914062 134.246094 L 551 134.246094 C 549.527344 134.246094 548.316406 133.035156 548.316406 131.570312 C 548.316406 130.105469 549.527344 128.894531 551 128.894531 L 574.230469 128.894531 L 574.230469 104.359375 L 558.488281 91.6875 L 542.746094 104.359375 L 542.746094 131.570312 C 542.746094 133.035156 541.53125 134.246094 540.0625 134.246094 C 538.59375 134.246094 537.382812 133.035156 537.382812 131.570312 L 537.382812 104.257812 C 537.382812 102.742188 538.089844 101.277344 539.253906 100.320312 L 555.296875 87.394531 C 557.121094 85.929688 559.804688 85.929688 561.625 87.394531 L 577.71875 100.320312 C 578.933594 101.277344 579.59375 102.691406 579.59375 104.257812 L 579.59375 131.621094 C 579.59375 133.035156 578.378906 134.246094 576.914062 134.246094 "/>
</g>
<g clip-path="url(#clip15)" clip-rule="nonzero">
<path style=" stroke:none;fill-rule:nonzero;fill:rgb(4.708862%,22.349548%,19.60907%);fill-opacity:1;" d="M 714.332031 229.683594 L 688.417969 229.683594 C 686.949219 229.683594 685.734375 228.472656 685.734375 227.007812 C 685.734375 225.542969 686.949219 224.332031 688.417969 224.332031 L 711.648438 224.332031 L 711.648438 199.796875 L 695.910156 187.125 L 680.167969 199.796875 L 680.167969 227.007812 C 680.167969 228.472656 678.949219 229.683594 677.484375 229.683594 C 676.015625 229.683594 674.800781 228.472656 674.800781 227.007812 L 674.800781 199.695312 C 674.800781 198.179688 675.511719 196.714844 676.671875 195.757812 L 692.714844 182.832031 C 694.542969 181.367188 697.222656 181.367188 699.042969 182.832031 L 715.140625 195.757812 C 716.355469 196.714844 717.011719 198.128906 717.011719 199.695312 L 717.011719 227.058594 C 717.011719 228.472656 715.796875 229.683594 714.332031 229.683594 "/>
</g>
<g clip-path="url(#clip16)" clip-rule="nonzero">
<path style=" stroke:none;fill-rule:nonzero;fill:rgb(4.708862%,22.349548%,19.60907%);fill-opacity:1;" d="M 483.96875 248.230469 L 460.332031 248.230469 C 458.992188 248.230469 457.886719 247.109375 457.886719 245.761719 C 457.886719 244.410156 458.992188 243.296875 460.332031 243.296875 L 481.519531 243.296875 L 481.519531 220.675781 L 467.164062 208.992188 L 452.808594 220.675781 L 452.808594 245.761719 C 452.808594 247.109375 451.699219 248.230469 450.363281 248.230469 C 449.019531 248.230469 447.914062 247.109375 447.914062 245.761719 L 447.914062 220.582031 C 447.914062 219.183594 448.5625 217.835938 449.621094 216.953125 L 464.253906 205.035156 C 465.917969 203.6875 468.367188 203.6875 470.023438 205.035156 L 484.703125 216.953125 C 485.8125 217.835938 486.410156 219.136719 486.410156 220.582031 L 486.410156 245.808594 C 486.410156 247.109375 485.304688 248.230469 483.96875 248.230469 "/>
</g>
<g clip-path="url(#clip17)" clip-rule="nonzero">
<path style=" stroke:none;fill-rule:nonzero;fill:rgb(30.589294%,10.198975%,13.729858%);fill-opacity:1;" d="M 501.070312 208.609375 L 480.613281 208.609375 C 479.453125 208.609375 478.496094 207.640625 478.496094 206.476562 C 478.496094 205.308594 479.453125 204.34375 480.613281 204.34375 L 498.949219 204.34375 L 498.949219 184.792969 L 486.523438 174.691406 L 474.101562 184.792969 L 474.101562 206.476562 C 474.101562 207.640625 473.136719 208.609375 471.980469 208.609375 C 470.820312 208.609375 469.863281 207.640625 469.863281 206.476562 L 469.863281 184.710938 C 469.863281 183.503906 470.421875 182.335938 471.339844 181.570312 L 484.003906 171.273438 C 485.445312 170.105469 487.5625 170.105469 489 171.273438 L 501.707031 181.570312 C 502.664062 182.335938 503.183594 183.460938 503.183594 184.710938 L 503.183594 206.515625 C 503.183594 207.640625 502.226562 208.609375 501.070312 208.609375 "/>
</g>
<g clip-path="url(#clip18)" clip-rule="nonzero">
<path style=" stroke:none;fill-rule:nonzero;fill:rgb(4.708862%,22.349548%,19.60907%);fill-opacity:1;" d="M 353.796875 251.648438 L 341.523438 251.648438 C 340.828125 251.648438 340.253906 251.082031 340.253906 250.394531 C 340.253906 249.707031 340.828125 249.140625 341.523438 249.140625 L 352.523438 249.140625 L 352.523438 237.640625 L 345.070312 231.699219 L 337.617188 237.640625 L 337.617188 250.394531 C 337.617188 251.082031 337.039062 251.648438 336.347656 251.648438 C 335.648438 251.648438 335.074219 251.082031 335.074219 250.394531 L 335.074219 237.589844 C 335.074219 236.878906 335.410156 236.195312 335.960938 235.746094 L 343.558594 229.6875 C 344.421875 229 345.695312 229 346.554688 229.6875 L 354.179688 235.746094 C 354.753906 236.195312 355.0625 236.855469 355.0625 237.589844 L 355.0625 250.417969 C 355.0625 251.082031 354.488281 251.648438 353.796875 251.648438 "/>
</g>
<g clip-path="url(#clip19)" clip-rule="nonzero">
<path style=" stroke:none;fill-rule:nonzero;fill:rgb(4.708862%,22.349548%,19.60907%);fill-opacity:1;" d="M 273.367188 250.558594 L 263.816406 250.558594 C 263.273438 250.558594 262.828125 250.101562 262.828125 249.554688 C 262.828125 249.003906 263.273438 248.550781 263.816406 248.550781 L 272.378906 248.550781 L 272.378906 239.347656 L 266.578125 234.597656 L 260.773438 239.347656 L 260.773438 249.554688 C 260.773438 250.101562 260.328125 250.558594 259.785156 250.558594 C 259.246094 250.558594 258.796875 250.101562 258.796875 249.554688 L 258.796875 239.3125 C 258.796875 238.742188 259.058594 238.195312 259.488281 237.835938 L 265.398438 232.988281 C 266.074219 232.4375 267.0625 232.4375 267.730469 232.988281 L 273.664062 237.835938 C 274.113281 238.195312 274.355469 238.722656 274.355469 239.3125 L 274.355469 249.574219 C 274.355469 250.101562 273.90625 250.558594 273.367188 250.558594 "/>
</g>
<g clip-path="url(#clip20)" clip-rule="nonzero">
<path style=" stroke:none;fill-rule:nonzero;fill:rgb(58.039856%,69.40918%,67.449951%);fill-opacity:1;" d="M 701.324219 189.621094 L 671.320312 189.621094 C 669.621094 189.621094 668.214844 188.21875 668.214844 186.523438 C 668.214844 184.832031 669.621094 183.433594 671.320312 183.433594 L 698.21875 183.433594 L 698.21875 155.0625 L 679.996094 140.410156 L 661.769531 155.0625 L 661.769531 186.523438 C 661.769531 188.21875 660.359375 189.621094 658.664062 189.621094 C 656.960938 189.621094 655.554688 188.21875 655.554688 186.523438 L 655.554688 154.945312 C 655.554688 153.191406 656.375 151.5 657.722656 150.390625 L 676.296875 135.449219 C 678.410156 133.753906 681.519531 133.753906 683.625 135.449219 L 702.261719 150.390625 C 703.667969 151.5 704.429688 153.132812 704.429688 154.945312 L 704.429688 186.585938 C 704.429688 188.21875 703.023438 189.621094 701.324219 189.621094 "/>
</g>
<g clip-path="url(#clip21)" clip-rule="nonzero">
<path style=" stroke:none;fill-rule:nonzero;fill:rgb(58.039856%,69.40918%,67.449951%);fill-opacity:1;" d="M 609.121094 242.882812 L 568.214844 242.882812 C 565.894531 242.882812 563.976562 240.964844 563.976562 238.65625 C 563.976562 236.34375 565.894531 234.4375 568.214844 234.4375 L 604.882812 234.4375 L 604.882812 195.714844 L 580.035156 175.714844 L 555.191406 195.714844 L 555.191406 238.65625 C 555.191406 240.964844 553.269531 242.882812 550.953125 242.882812 C 548.632812 242.882812 546.71875 240.964844 546.71875 238.65625 L 546.71875 195.554688 C 546.71875 193.160156 547.839844 190.851562 549.671875 189.339844 L 575 168.941406 C 577.878906 166.632812 582.113281 166.632812 584.988281 168.941406 L 610.394531 189.339844 C 612.308594 190.851562 613.347656 193.082031 613.347656 195.554688 L 613.347656 238.738281 C 613.347656 240.964844 611.433594 242.882812 609.121094 242.882812 "/>
</g>
<g clip-path="url(#clip22)" clip-rule="nonzero">
<path style=" stroke:none;fill-rule:nonzero;fill:rgb(58.039856%,69.40918%,67.449951%);fill-opacity:1;" d="M 371.570312 234.484375 L 356.570312 234.484375 C 355.71875 234.484375 355.019531 233.78125 355.019531 232.9375 C 355.019531 232.089844 355.71875 231.390625 356.570312 231.390625 L 370.015625 231.390625 L 370.015625 217.207031 L 360.90625 209.878906 L 351.796875 217.207031 L 351.796875 232.9375 C 351.796875 233.78125 351.089844 234.484375 350.242188 234.484375 C 349.390625 234.484375 348.6875 233.78125 348.6875 232.9375 L 348.6875 217.144531 C 348.6875 216.269531 349.101562 215.421875 349.773438 214.871094 L 359.058594 207.398438 C 360.113281 206.550781 361.667969 206.550781 362.722656 207.398438 L 372.035156 214.871094 C 372.738281 215.421875 373.121094 216.242188 373.121094 217.144531 L 373.121094 232.964844 C 373.121094 233.78125 372.417969 234.484375 371.570312 234.484375 "/>
</g>
<g clip-path="url(#clip23)" clip-rule="nonzero">
<path style=" stroke:none;fill-rule:nonzero;fill:rgb(58.039856%,69.40918%,67.449951%);fill-opacity:1;" d="M 323.941406 242.796875 L 307.582031 242.796875 C 306.652344 242.796875 305.886719 242.019531 305.886719 241.082031 C 305.886719 240.140625 306.652344 239.367188 307.582031 239.367188 L 322.246094 239.367188 L 322.246094 223.648438 L 312.308594 215.53125 L 302.371094 223.648438 L 302.371094 241.082031 C 302.371094 242.019531 301.601562 242.796875 300.675781 242.796875 C 299.75 242.796875 298.984375 242.019531 298.984375 241.082031 L 298.984375 223.582031 C 298.984375 222.613281 299.429688 221.675781 300.164062 221.0625 L 310.292969 212.78125 C 311.445312 211.84375 313.140625 211.84375 314.289062 212.78125 L 324.453125 221.0625 C 325.21875 221.675781 325.632812 222.578125 325.632812 223.582031 L 325.632812 241.113281 C 325.632812 242.019531 324.867188 242.796875 323.941406 242.796875 "/>
</g>
<g clip-path="url(#clip24)" clip-rule="nonzero">
<path style=" stroke:none;fill-rule:nonzero;fill:rgb(10.198975%,30.589294%,27.059937%);fill-opacity:1;" d="M 544.203125 179.714844 L 527.390625 179.714844 C 526.433594 179.714844 525.648438 178.917969 525.648438 177.957031 C 525.648438 176.996094 526.433594 176.203125 527.390625 176.203125 L 542.464844 176.203125 L 542.464844 160.101562 L 532.25 151.785156 L 522.035156 160.101562 L 522.035156 177.957031 C 522.035156 178.917969 521.246094 179.714844 520.292969 179.714844 C 519.339844 179.714844 518.554688 178.917969 518.554688 177.957031 L 518.554688 160.035156 C 518.554688 159.039062 519.011719 158.078125 519.765625 157.449219 L 530.179688 148.96875 C 531.363281 148.007812 533.101562 148.007812 534.285156 148.96875 L 544.730469 157.449219 C 545.515625 158.078125 545.941406 159.003906 545.941406 160.035156 L 545.941406 177.992188 C 545.941406 178.917969 545.15625 179.714844 544.203125 179.714844 "/>
</g>
<g clip-path="url(#clip25)" clip-rule="nonzero">
<path style=" stroke:none;fill-rule:nonzero;fill:rgb(10.198975%,30.589294%,27.059937%);fill-opacity:1;" d="M 621.324219 77.679688 L 580.417969 77.679688 C 578.097656 77.679688 576.183594 75.765625 576.183594 73.457031 C 576.183594 71.144531 578.097656 69.238281 580.417969 69.238281 L 617.089844 69.238281 L 617.089844 30.515625 L 592.242188 10.515625 L 567.394531 30.515625 L 567.394531 73.457031 C 567.394531 75.765625 565.472656 77.679688 563.160156 77.679688 C 560.839844 77.679688 558.925781 75.765625 558.925781 73.457031 L 558.925781 30.351562 C 558.925781 27.960938 560.042969 25.652344 561.878906 24.140625 L 587.203125 3.742188 C 590.082031 1.433594 594.320312 1.433594 597.191406 3.742188 L 622.597656 24.140625 C 624.515625 25.652344 625.554688 27.882812 625.554688 30.351562 L 625.554688 73.535156 C 625.554688 75.765625 623.636719 77.679688 621.324219 77.679688 "/>
</g>
<g clip-path="url(#clip26)" clip-rule="nonzero">
<path style=" stroke:none;fill-rule:nonzero;fill:rgb(58.039856%,69.40918%,67.449951%);fill-opacity:1;" d="M 722.800781 95.480469 L 663.257812 95.480469 C 659.878906 95.480469 657.09375 92.675781 657.09375 89.289062 C 657.09375 85.902344 659.878906 83.105469 663.257812 83.105469 L 716.636719 83.105469 L 716.636719 26.363281 L 680.46875 -2.941406 L 644.300781 26.363281 L 644.300781 89.289062 C 644.300781 92.675781 641.5 95.480469 638.132812 95.480469 C 634.757812 95.480469 631.96875 92.675781 631.96875 89.289062 L 631.96875 26.128906 C 631.96875 22.625 633.597656 19.238281 636.269531 17.023438 L 673.132812 -12.863281 C 677.328125 -16.25 683.492188 -16.25 687.675781 -12.863281 L 724.65625 17.023438 C 727.445312 19.238281 728.957031 22.507812 728.957031 26.128906 L 728.957031 89.40625 C 728.957031 92.675781 726.167969 95.480469 722.800781 95.480469 "/>
</g>
</g>
</svg>
