<?xml version="1.0" encoding="UTF-8"?>
<svg xmlns="http://www.w3.org/2000/svg" xmlns:xlink="http://www.w3.org/1999/xlink" width="1012.5pt" height="487.499991pt" viewBox="0 0 1012.5 487.499991" version="1.2">
<defs>
<clipPath id="clip1">
  <path d="M 0.269531 0 L 1011.730469 0 L 1011.730469 487 L 0.269531 487 Z M 0.269531 0 "/>
</clipPath>
<clipPath id="clip2">
  <path d="M 797.089844 19.738281 L 968.207031 19.738281 L 968.207031 214.636719 L 797.089844 214.636719 Z M 797.089844 19.738281 "/>
</clipPath>
<clipPath id="clip3">
  <path d="M 716.769531 243.621094 L 815.292969 243.621094 L 815.292969 356.0625 L 716.769531 356.0625 Z M 716.769531 243.621094 "/>
</clipPath>
<clipPath id="clip4">
  <path d="M 843.390625 327.902344 L 968.582031 327.902344 L 968.582031 470.324219 L 843.390625 470.324219 Z M 843.390625 327.902344 "/>
</clipPath>
<clipPath id="clip5">
  <path d="M 846.976562 183.503906 L 973.652344 183.503906 L 973.652344 328.175781 L 846.976562 328.175781 Z M 846.976562 183.503906 "/>
</clipPath>
<clipPath id="clip6">
  <path d="M 545.191406 380.773438 L 614.828125 380.773438 L 614.828125 460.230469 L 545.191406 460.230469 Z M 545.191406 380.773438 "/>
</clipPath>
<clipPath id="clip7">
  <path d="M 354.09375 433.449219 L 386.6875 433.449219 L 386.6875 470.179688 L 354.09375 470.179688 Z M 354.09375 433.449219 "/>
</clipPath>
<clipPath id="clip8">
  <path d="M 422.410156 407.835938 L 456.484375 407.835938 L 456.484375 446.8125 L 422.410156 446.8125 Z M 422.410156 407.835938 "/>
</clipPath>
<clipPath id="clip9">
  <path d="M 506.515625 426.050781 L 551.699219 426.050781 L 551.699219 477.773438 L 506.515625 477.773438 Z M 506.515625 426.050781 "/>
</clipPath>
<clipPath id="clip10">
  <path d="M 907.828125 1.722656 L 1011.730469 1.722656 L 1011.730469 177.878906 L 907.828125 177.878906 Z M 907.828125 1.722656 "/>
</clipPath>
<clipPath id="clip11">
  <path d="M 602.699219 414.914062 L 651.597656 414.914062 L 651.597656 470.382812 L 602.699219 470.382812 Z M 602.699219 414.914062 "/>
</clipPath>
<clipPath id="clip12">
  <path d="M 766.5625 350.675781 L 847.304688 350.675781 L 847.304688 442.878906 L 766.5625 442.878906 Z M 766.5625 350.675781 "/>
</clipPath>
<clipPath id="clip13">
  <path d="M 386.839844 433.449219 L 421.648438 433.449219 L 421.648438 473.175781 L 386.839844 473.175781 Z M 386.839844 433.449219 "/>
</clipPath>
<clipPath id="clip14">
  <path d="M 621.792969 342.742188 L 661.789062 342.742188 L 661.789062 388.46875 L 621.792969 388.46875 Z M 621.792969 342.742188 "/>
</clipPath>
<clipPath id="clip15">
  <path d="M 755.765625 148.214844 L 836.507812 148.214844 L 836.507812 240.417969 L 755.765625 240.417969 Z M 755.765625 148.214844 "/>
</clipPath>
<clipPath id="clip16">
  <path d="M 934.0625 345.101562 L 1011.730469 345.101562 L 1011.730469 437.304688 L 934.0625 437.304688 Z M 934.0625 345.101562 "/>
</clipPath>
<clipPath id="clip17">
  <path d="M 672.480469 389.085938 L 745.8125 389.085938 L 745.8125 473.039062 L 672.480469 473.039062 Z M 672.480469 389.085938 "/>
</clipPath>
<clipPath id="clip18">
  <path d="M 644.933594 354.679688 L 708.640625 354.679688 L 708.640625 427.390625 L 644.933594 427.390625 Z M 644.933594 354.679688 "/>
</clipPath>
<clipPath id="clip19">
  <path d="M 457.285156 437.046875 L 495.804688 437.046875 L 495.804688 480.523438 L 457.285156 480.523438 Z M 457.285156 437.046875 "/>
</clipPath>
<clipPath id="clip20">
  <path d="M 311.824219 443.535156 L 341.449219 443.535156 L 341.449219 478.019531 L 311.824219 478.019531 Z M 311.824219 443.535156 "/>
</clipPath>
<clipPath id="clip21">
  <path d="M 917.664062 250.589844 L 1010.261719 250.589844 L 1010.261719 356.285156 L 917.664062 356.285156 Z M 917.664062 250.589844 "/>
</clipPath>
<clipPath id="clip22">
  <path d="M 645.824219 227.640625 L 772.496094 227.640625 L 772.496094 372.316406 L 645.824219 372.316406 Z M 645.824219 227.640625 "/>
</clipPath>
<clipPath id="clip23">
  <path d="M 483.238281 394.308594 L 529.171875 394.308594 L 529.171875 446.78125 L 483.238281 446.78125 Z M 483.238281 394.308594 "/>
</clipPath>
<clipPath id="clip24">
  <path d="M 388.449219 404.441406 L 439.5625 404.441406 L 439.5625 462.164062 L 388.449219 462.164062 Z M 388.449219 404.441406 "/>
</clipPath>
<clipPath id="clip25">
  <path d="M 807.195312 282.710938 L 859.792969 282.710938 L 859.792969 342.679688 L 807.195312 342.679688 Z M 807.195312 282.710938 "/>
</clipPath>
<clipPath id="clip26">
  <path d="M 748.808594 0 L 875.484375 0 L 875.484375 132.488281 L 748.808594 132.488281 Z M 748.808594 0 "/>
</clipPath>
<clipPath id="clip27">
  <path d="M 819.582031 3.820312 L 1004.773438 3.820312 L 1004.773438 214.457031 L 819.582031 214.457031 Z M 819.582031 3.820312 "/>
</clipPath>
</defs>
<g id="surface1">
<g clip-path="url(#clip1)" clip-rule="nonzero">
<path style=" stroke:none;fill-rule:nonzero;fill:rgb(100%,100%,100%);fill-opacity:1;" d="M 0.269531 0 L 1012.230469 0 L 1012.230469 493.988281 L 0.269531 493.988281 Z M 0.269531 0 "/>
<path style=" stroke:none;fill-rule:nonzero;fill:rgb(100%,100%,100%);fill-opacity:1;" d="M 0.269531 0 L 1012.230469 0 L 1012.230469 487.242188 L 0.269531 487.242188 Z M 0.269531 0 "/>
<path style=" stroke:none;fill-rule:nonzero;fill:rgb(79.219055%,84.709167%,83.918762%);fill-opacity:1;" d="M 0.269531 0 L 1012.230469 0 L 1012.230469 487.242188 L 0.269531 487.242188 Z M 0.269531 0 "/>
</g>
<g clip-path="url(#clip2)" clip-rule="nonzero">
<path style=" stroke:none;fill-rule:nonzero;fill:rgb(30.589294%,10.198975%,13.729858%);fill-opacity:1;" d="M 957.347656 214.636719 L 852.292969 214.636719 C 846.335938 214.636719 841.414062 209.707031 841.414062 203.753906 C 841.414062 197.800781 846.335938 192.886719 852.292969 192.886719 L 946.46875 192.886719 L 946.46875 93.15625 L 882.65625 41.644531 L 818.847656 93.15625 L 818.847656 203.753906 C 818.847656 209.707031 813.910156 214.636719 807.96875 214.636719 C 802.007812 214.636719 797.089844 209.707031 797.089844 203.753906 L 797.089844 92.738281 C 797.089844 86.578125 799.964844 80.628906 804.675781 76.734375 L 869.71875 24.203125 C 877.113281 18.253906 887.992188 18.253906 895.371094 24.203125 L 960.621094 76.734375 C 965.539062 80.628906 968.207031 86.371094 968.207031 92.738281 L 968.207031 203.960938 C 968.207031 209.707031 963.289062 214.636719 957.347656 214.636719 "/>
</g>
<g clip-path="url(#clip3)" clip-rule="nonzero">
<path style=" stroke:none;fill-rule:nonzero;fill:rgb(30.589294%,10.198975%,13.729858%);fill-opacity:1;" d="M 809.039062 356.0625 L 748.554688 356.0625 C 745.121094 356.0625 742.289062 353.214844 742.289062 349.78125 C 742.289062 346.347656 745.121094 343.511719 748.554688 343.511719 L 802.777344 343.511719 L 802.777344 285.976562 L 766.035156 256.257812 L 729.296875 285.976562 L 729.296875 349.78125 C 729.296875 353.214844 726.453125 356.0625 723.03125 356.0625 C 719.601562 356.0625 716.769531 353.214844 716.769531 349.78125 L 716.769531 285.734375 C 716.769531 282.183594 718.425781 278.75 721.136719 276.503906 L 758.585938 246.195312 C 762.84375 242.761719 769.109375 242.761719 773.355469 246.195312 L 810.925781 276.503906 C 813.757812 278.75 815.292969 282.0625 815.292969 285.734375 L 815.292969 349.902344 C 815.292969 353.214844 812.460938 356.0625 809.039062 356.0625 "/>
</g>
<g clip-path="url(#clip4)" clip-rule="nonzero">
<path style=" stroke:none;fill-rule:nonzero;fill:rgb(30.589294%,10.198975%,13.729858%);fill-opacity:1;" d="M 960.636719 470.324219 L 883.777344 470.324219 C 879.417969 470.324219 875.820312 466.722656 875.820312 462.371094 C 875.820312 458.023438 879.417969 454.429688 883.777344 454.429688 L 952.675781 454.429688 L 952.675781 381.550781 L 905.992188 343.910156 L 859.308594 381.550781 L 859.308594 462.371094 C 859.308594 466.722656 855.695312 470.324219 851.351562 470.324219 C 846.992188 470.324219 843.390625 466.722656 843.390625 462.371094 L 843.390625 381.246094 C 843.390625 376.746094 845.496094 372.394531 848.941406 369.550781 L 896.527344 331.164062 C 901.9375 326.8125 909.894531 326.8125 915.292969 331.164062 L 963.03125 369.550781 C 966.628906 372.394531 968.582031 376.59375 968.582031 381.246094 L 968.582031 462.523438 C 968.582031 466.722656 964.980469 470.324219 960.636719 470.324219 "/>
</g>
<g clip-path="url(#clip5)" clip-rule="nonzero">
<path style=" stroke:none;fill-rule:nonzero;fill:rgb(10.198975%,30.589294%,27.059937%);fill-opacity:1;" d="M 965.609375 328.175781 L 887.84375 328.175781 C 883.433594 328.175781 879.789062 324.515625 879.789062 320.097656 C 879.789062 315.679688 883.433594 312.03125 887.84375 312.03125 L 957.558594 312.03125 L 957.558594 238 L 910.320312 199.765625 L 863.082031 238 L 863.082031 320.097656 C 863.082031 324.515625 859.429688 328.175781 855.03125 328.175781 C 850.621094 328.175781 846.976562 324.515625 846.976562 320.097656 L 846.976562 237.691406 C 846.976562 233.121094 849.105469 228.703125 852.59375 225.8125 L 900.742188 186.816406 C 906.21875 182.398438 914.269531 182.398438 919.734375 186.816406 L 968.035156 225.8125 C 971.675781 228.703125 973.652344 232.964844 973.652344 237.691406 L 973.652344 320.253906 C 973.652344 324.515625 970.007812 328.175781 965.609375 328.175781 "/>
</g>
<g clip-path="url(#clip6)" clip-rule="nonzero">
<path style=" stroke:none;fill-rule:nonzero;fill:rgb(30.589294%,10.198975%,13.729858%);fill-opacity:1;" d="M 610.40625 460.230469 L 567.65625 460.230469 C 565.230469 460.230469 563.230469 458.21875 563.230469 455.792969 C 563.230469 453.367188 565.230469 451.363281 567.65625 451.363281 L 605.980469 451.363281 L 605.980469 410.703125 L 580.011719 389.703125 L 554.042969 410.703125 L 554.042969 455.792969 C 554.042969 458.21875 552.035156 460.230469 549.617188 460.230469 C 547.191406 460.230469 545.191406 458.21875 545.191406 455.792969 L 545.191406 410.535156 C 545.191406 408.023438 546.363281 405.597656 548.277344 404.007812 L 574.746094 382.59375 C 577.757812 380.167969 582.183594 380.167969 585.1875 382.59375 L 611.738281 404.007812 C 613.742188 405.597656 614.828125 407.9375 614.828125 410.535156 L 614.828125 455.878906 C 614.828125 458.21875 612.824219 460.230469 610.40625 460.230469 "/>
</g>
<g clip-path="url(#clip7)" clip-rule="nonzero">
<path style=" stroke:none;fill-rule:nonzero;fill:rgb(30.589294%,10.198975%,13.729858%);fill-opacity:1;" d="M 384.617188 470.179688 L 364.609375 470.179688 C 363.472656 470.179688 362.539062 469.25 362.539062 468.128906 C 362.539062 467.007812 363.472656 466.078125 364.609375 466.078125 L 382.546875 466.078125 L 382.546875 447.285156 L 370.394531 437.578125 L 358.238281 447.285156 L 358.238281 468.128906 C 358.238281 469.25 357.296875 470.179688 356.167969 470.179688 C 355.03125 470.179688 354.09375 469.25 354.09375 468.128906 L 354.09375 447.207031 C 354.09375 446.046875 354.644531 444.921875 355.539062 444.191406 L 367.929688 434.289062 C 369.335938 433.167969 371.410156 433.167969 372.8125 434.289062 L 385.242188 444.191406 C 386.179688 444.921875 386.6875 446.007812 386.6875 447.207031 L 386.6875 468.167969 C 386.6875 469.25 385.75 470.179688 384.617188 470.179688 "/>
</g>
<g clip-path="url(#clip8)" clip-rule="nonzero">
<path style=" stroke:none;fill-rule:nonzero;fill:rgb(30.589294%,10.198975%,13.729858%);fill-opacity:1;" d="M 454.320312 446.8125 L 433.402344 446.8125 C 432.214844 446.8125 431.234375 445.828125 431.234375 444.636719 C 431.234375 443.445312 432.214844 442.464844 433.402344 442.464844 L 452.15625 442.464844 L 452.15625 422.515625 L 439.449219 412.214844 L 426.742188 422.515625 L 426.742188 444.636719 C 426.742188 445.828125 425.757812 446.8125 424.574219 446.8125 C 423.390625 446.8125 422.410156 445.828125 422.410156 444.636719 L 422.410156 422.433594 C 422.410156 421.203125 422.980469 420.011719 423.921875 419.234375 L 436.871094 408.726562 C 438.34375 407.535156 440.511719 407.535156 441.980469 408.726562 L 454.972656 419.234375 C 455.953125 420.011719 456.484375 421.160156 456.484375 422.433594 L 456.484375 444.679688 C 456.484375 445.828125 455.503906 446.8125 454.320312 446.8125 "/>
</g>
<g clip-path="url(#clip9)" clip-rule="nonzero">
<path style=" stroke:none;fill-rule:nonzero;fill:rgb(4.708862%,22.349548%,19.60907%);fill-opacity:1;" d="M 548.832031 477.773438 L 521.089844 477.773438 C 519.519531 477.773438 518.21875 476.464844 518.21875 474.886719 C 518.21875 473.308594 519.519531 472.003906 521.089844 472.003906 L 545.957031 472.003906 L 545.957031 445.535156 L 529.109375 431.867188 L 512.257812 445.535156 L 512.257812 474.886719 C 512.257812 476.464844 510.957031 477.773438 509.386719 477.773438 C 507.8125 477.773438 506.515625 476.464844 506.515625 474.886719 L 506.515625 445.425781 C 506.515625 443.789062 507.273438 442.210938 508.519531 441.179688 L 525.691406 427.238281 C 527.644531 425.65625 530.519531 425.65625 532.464844 427.238281 L 549.695312 441.179688 C 550.996094 442.210938 551.699219 443.734375 551.699219 445.425781 L 551.699219 474.941406 C 551.699219 476.464844 550.398438 477.773438 548.832031 477.773438 "/>
</g>
<g clip-path="url(#clip10)" clip-rule="nonzero">
<path style=" stroke:none;fill-rule:nonzero;fill:rgb(4.708862%,22.349548%,19.60907%);fill-opacity:1;" d="M 1052.828125 177.878906 L 957.773438 177.878906 C 952.382812 177.878906 947.933594 173.421875 947.933594 168.039062 C 947.933594 162.660156 952.382812 158.21875 957.773438 158.21875 L 1042.984375 158.21875 L 1042.984375 68.078125 L 985.25 21.519531 L 927.511719 68.078125 L 927.511719 168.039062 C 927.511719 173.421875 923.046875 177.878906 917.667969 177.878906 C 912.277344 177.878906 907.828125 173.421875 907.828125 168.039062 L 907.828125 67.703125 C 907.828125 62.132812 910.429688 56.753906 914.691406 53.234375 L 973.542969 5.753906 C 980.234375 0.375 990.074219 0.375 996.753906 5.753906 L 1055.789062 53.234375 C 1060.242188 56.753906 1062.65625 61.945312 1062.65625 67.703125 L 1062.65625 168.226562 C 1062.65625 173.421875 1058.203125 177.878906 1052.828125 177.878906 "/>
</g>
<g clip-path="url(#clip11)" clip-rule="nonzero">
<path style=" stroke:none;fill-rule:nonzero;fill:rgb(4.708862%,22.349548%,19.60907%);fill-opacity:1;" d="M 648.492188 470.382812 L 618.472656 470.382812 C 616.769531 470.382812 615.363281 468.980469 615.363281 467.285156 C 615.363281 465.589844 616.769531 464.191406 618.472656 464.191406 L 645.386719 464.191406 L 645.386719 435.808594 L 627.148438 421.148438 L 608.914062 435.808594 L 608.914062 467.285156 C 608.914062 468.980469 607.503906 470.382812 605.804688 470.382812 C 604.101562 470.382812 602.699219 468.980469 602.699219 467.285156 L 602.699219 435.691406 C 602.699219 433.9375 603.519531 432.242188 604.867188 431.132812 L 623.453125 416.183594 C 625.566406 414.488281 628.675781 414.488281 630.78125 416.183594 L 649.429688 431.132812 C 650.835938 432.242188 651.597656 433.878906 651.597656 435.691406 L 651.597656 467.34375 C 651.597656 468.980469 650.191406 470.382812 648.492188 470.382812 "/>
</g>
<g clip-path="url(#clip12)" clip-rule="nonzero">
<path style=" stroke:none;fill-rule:nonzero;fill:rgb(4.708862%,22.349548%,19.60907%);fill-opacity:1;" d="M 842.179688 442.878906 L 792.609375 442.878906 C 789.796875 442.878906 787.476562 440.542969 787.476562 437.726562 C 787.476562 434.914062 789.796875 432.589844 792.609375 432.589844 L 837.046875 432.589844 L 837.046875 385.40625 L 806.9375 361.039062 L 776.828125 385.40625 L 776.828125 437.726562 C 776.828125 440.542969 774.496094 442.878906 771.695312 442.878906 C 768.882812 442.878906 766.5625 440.542969 766.5625 437.726562 L 766.5625 385.210938 C 766.5625 382.296875 767.917969 379.480469 770.140625 377.640625 L 800.832031 352.789062 C 804.320312 349.972656 809.453125 349.972656 812.9375 352.789062 L 843.726562 377.640625 C 846.046875 379.480469 847.304688 382.199219 847.304688 385.210938 L 847.304688 437.828125 C 847.304688 440.542969 844.984375 442.878906 842.179688 442.878906 "/>
</g>
<g clip-path="url(#clip13)" clip-rule="nonzero">
<path style=" stroke:none;fill-rule:nonzero;fill:rgb(4.708862%,22.349548%,19.60907%);fill-opacity:1;" d="M 419.4375 473.175781 L 398.066406 473.175781 C 396.855469 473.175781 395.855469 472.171875 395.855469 470.957031 C 395.855469 469.746094 396.855469 468.742188 398.066406 468.742188 L 417.226562 468.742188 L 417.226562 448.414062 L 404.246094 437.914062 L 391.265625 448.414062 L 391.265625 470.957031 C 391.265625 472.171875 390.257812 473.175781 389.050781 473.175781 C 387.839844 473.175781 386.839844 472.171875 386.839844 470.957031 L 386.839844 448.328125 C 386.839844 447.074219 387.421875 445.859375 388.382812 445.066406 L 401.613281 434.359375 C 403.117188 433.144531 405.332031 433.144531 406.832031 434.359375 L 420.105469 445.066406 C 421.105469 445.859375 421.648438 447.03125 421.648438 448.328125 L 421.648438 471 C 421.648438 472.171875 420.648438 473.175781 419.4375 473.175781 "/>
</g>
<g clip-path="url(#clip14)" clip-rule="nonzero">
<path style=" stroke:none;fill-rule:nonzero;fill:rgb(4.708862%,22.349548%,19.60907%);fill-opacity:1;" d="M 659.25 388.46875 L 634.695312 388.46875 C 633.304688 388.46875 632.152344 387.3125 632.152344 385.914062 C 632.152344 384.519531 633.304688 383.363281 634.695312 383.363281 L 656.707031 383.363281 L 656.707031 359.964844 L 641.792969 347.882812 L 626.878906 359.964844 L 626.878906 385.914062 C 626.878906 387.3125 625.722656 388.46875 624.335938 388.46875 C 622.941406 388.46875 621.792969 387.3125 621.792969 385.914062 L 621.792969 359.867188 C 621.792969 358.425781 622.464844 357.027344 623.566406 356.113281 L 638.769531 343.789062 C 640.496094 342.394531 643.039062 342.394531 644.765625 343.789062 L 660.015625 356.113281 C 661.164062 357.027344 661.789062 358.375 661.789062 359.867188 L 661.789062 385.964844 C 661.789062 387.3125 660.640625 388.46875 659.25 388.46875 "/>
</g>
<g clip-path="url(#clip15)" clip-rule="nonzero">
<path style=" stroke:none;fill-rule:nonzero;fill:rgb(4.708862%,22.349548%,19.60907%);fill-opacity:1;" d="M 831.382812 240.417969 L 781.8125 240.417969 C 779 240.417969 776.679688 238.082031 776.679688 235.265625 C 776.679688 232.453125 779 230.128906 781.8125 230.128906 L 826.25 230.128906 L 826.25 182.945312 L 796.140625 158.578125 L 766.03125 182.945312 L 766.03125 235.265625 C 766.03125 238.082031 763.699219 240.417969 760.898438 240.417969 C 758.085938 240.417969 755.765625 238.082031 755.765625 235.265625 L 755.765625 182.75 C 755.765625 179.835938 757.121094 177.019531 759.34375 175.179688 L 790.035156 150.328125 C 793.523438 147.511719 798.65625 147.511719 802.140625 150.328125 L 832.925781 175.179688 C 835.25 177.019531 836.507812 179.738281 836.507812 182.75 L 836.507812 235.367188 C 836.507812 238.082031 834.1875 240.417969 831.382812 240.417969 "/>
</g>
<g clip-path="url(#clip16)" clip-rule="nonzero">
<path style=" stroke:none;fill-rule:nonzero;fill:rgb(4.708862%,22.349548%,19.60907%);fill-opacity:1;" d="M 1009.683594 437.304688 L 960.113281 437.304688 C 957.300781 437.304688 954.980469 434.96875 954.980469 432.15625 C 954.980469 429.339844 957.300781 427.015625 960.113281 427.015625 L 1004.550781 427.015625 L 1004.550781 379.832031 L 974.4375 355.464844 L 944.328125 379.832031 L 944.328125 432.15625 C 944.328125 434.96875 942 437.304688 939.195312 437.304688 C 936.382812 437.304688 934.0625 434.96875 934.0625 432.15625 L 934.0625 379.636719 C 934.0625 376.722656 935.421875 373.90625 937.644531 372.066406 L 968.332031 347.214844 C 971.824219 344.398438 976.957031 344.398438 980.4375 347.214844 L 1011.226562 372.066406 C 1013.546875 373.90625 1014.808594 376.625 1014.808594 379.636719 L 1014.808594 432.253906 C 1014.808594 434.96875 1012.484375 437.304688 1009.683594 437.304688 "/>
</g>
<g clip-path="url(#clip17)" clip-rule="nonzero">
<path style=" stroke:none;fill-rule:nonzero;fill:rgb(4.708862%,22.349548%,19.60907%);fill-opacity:1;" d="M 741.160156 473.039062 L 696.136719 473.039062 C 693.585938 473.039062 691.476562 470.917969 691.476562 468.351562 C 691.476562 465.789062 693.585938 463.671875 696.136719 463.671875 L 736.496094 463.671875 L 736.496094 420.710938 L 709.152344 398.519531 L 681.804688 420.710938 L 681.804688 468.351562 C 681.804688 470.917969 679.6875 473.039062 677.140625 473.039062 C 674.589844 473.039062 672.480469 470.917969 672.480469 468.351562 L 672.480469 420.53125 C 672.480469 417.878906 673.714844 415.3125 675.730469 413.636719 L 703.605469 391.007812 C 706.777344 388.445312 711.4375 388.445312 714.597656 391.007812 L 742.5625 413.636719 C 744.671875 415.3125 745.8125 417.789062 745.8125 420.53125 L 745.8125 468.441406 C 745.8125 470.917969 743.707031 473.039062 741.160156 473.039062 "/>
</g>
<g clip-path="url(#clip18)" clip-rule="nonzero">
<path style=" stroke:none;fill-rule:nonzero;fill:rgb(30.589294%,10.198975%,13.729858%);fill-opacity:1;" d="M 704.597656 427.390625 L 665.484375 427.390625 C 663.269531 427.390625 661.4375 425.550781 661.4375 423.332031 C 661.4375 421.109375 663.269531 419.277344 665.484375 419.277344 L 700.546875 419.277344 L 700.546875 382.070312 L 676.789062 362.851562 L 653.035156 382.070312 L 653.035156 423.332031 C 653.035156 425.550781 651.195312 427.390625 648.984375 427.390625 C 646.765625 427.390625 644.933594 425.550781 644.933594 423.332031 L 644.933594 381.914062 C 644.933594 379.617188 646.003906 377.394531 647.757812 375.941406 L 671.972656 356.34375 C 674.726562 354.125 678.777344 354.125 681.523438 356.34375 L 705.816406 375.941406 C 707.648438 377.394531 708.640625 379.539062 708.640625 381.914062 L 708.640625 423.40625 C 708.640625 425.550781 706.808594 427.390625 704.597656 427.390625 "/>
</g>
<g clip-path="url(#clip19)" clip-rule="nonzero">
<path style=" stroke:none;fill-rule:nonzero;fill:rgb(4.708862%,22.349548%,19.60907%);fill-opacity:1;" d="M 493.359375 480.523438 L 469.710938 480.523438 C 468.371094 480.523438 467.261719 479.421875 467.261719 478.09375 C 467.261719 476.765625 468.371094 475.671875 469.710938 475.671875 L 490.914062 475.671875 L 490.914062 453.421875 L 476.546875 441.929688 L 462.183594 453.421875 L 462.183594 478.09375 C 462.183594 479.421875 461.070312 480.523438 459.734375 480.523438 C 458.390625 480.523438 457.285156 479.421875 457.285156 478.09375 L 457.285156 453.328125 C 457.285156 451.957031 457.933594 450.628906 458.992188 449.757812 L 473.632812 438.039062 C 475.300781 436.714844 477.75 436.714844 479.410156 438.039062 L 494.097656 449.757812 C 495.207031 450.628906 495.804688 451.910156 495.804688 453.328125 L 495.804688 478.140625 C 495.804688 479.421875 494.699219 480.523438 493.359375 480.523438 "/>
</g>
<g clip-path="url(#clip20)" clip-rule="nonzero">
<path style=" stroke:none;fill-rule:nonzero;fill:rgb(4.708862%,22.349548%,19.60907%);fill-opacity:1;" d="M 339.570312 478.019531 L 321.378906 478.019531 C 320.347656 478.019531 319.496094 477.144531 319.496094 476.09375 C 319.496094 475.039062 320.347656 474.171875 321.378906 474.171875 L 337.6875 474.171875 L 337.6875 456.523438 L 326.636719 447.410156 L 315.589844 456.523438 L 315.589844 476.09375 C 315.589844 477.144531 314.734375 478.019531 313.707031 478.019531 C 312.675781 478.019531 311.824219 477.144531 311.824219 476.09375 L 311.824219 456.453125 C 311.824219 455.363281 312.320312 454.308594 313.136719 453.621094 L 324.398438 444.328125 C 325.679688 443.273438 327.5625 443.273438 328.839844 444.328125 L 340.136719 453.621094 C 340.988281 454.308594 341.449219 455.324219 341.449219 456.453125 L 341.449219 476.128906 C 341.449219 477.144531 340.597656 478.019531 339.570312 478.019531 "/>
</g>
<g clip-path="url(#clip21)" clip-rule="nonzero">
<path style=" stroke:none;fill-rule:nonzero;fill:rgb(58.039856%,69.40918%,67.449951%);fill-opacity:1;" d="M 1004.386719 356.285156 L 947.539062 356.285156 C 944.3125 356.285156 941.652344 353.613281 941.652344 350.382812 C 941.652344 347.15625 944.3125 344.492188 947.539062 344.492188 L 998.5 344.492188 L 998.5 290.40625 L 963.96875 262.472656 L 929.4375 290.40625 L 929.4375 350.382812 C 929.4375 353.613281 926.765625 356.285156 923.550781 356.285156 C 920.328125 356.285156 917.664062 353.613281 917.664062 350.382812 L 917.664062 290.179688 C 917.664062 286.839844 919.222656 283.613281 921.769531 281.5 L 956.96875 253.011719 C 960.96875 249.785156 966.855469 249.785156 970.847656 253.011719 L 1006.15625 281.5 C 1008.820312 283.613281 1010.261719 286.726562 1010.261719 290.179688 L 1010.261719 350.496094 C 1010.261719 353.613281 1007.601562 356.285156 1004.386719 356.285156 "/>
</g>
<g clip-path="url(#clip22)" clip-rule="nonzero">
<path style=" stroke:none;fill-rule:nonzero;fill:rgb(58.039856%,69.40918%,67.449951%);fill-opacity:1;" d="M 764.457031 372.316406 L 686.691406 372.316406 C 682.277344 372.316406 678.636719 368.65625 678.636719 364.238281 C 678.636719 359.816406 682.277344 356.171875 686.691406 356.171875 L 756.40625 356.171875 L 756.40625 282.140625 L 709.167969 243.902344 L 661.929688 282.140625 L 661.929688 364.238281 C 661.929688 368.65625 658.277344 372.316406 653.878906 372.316406 C 649.464844 372.316406 645.824219 368.65625 645.824219 364.238281 L 645.824219 281.832031 C 645.824219 277.257812 647.953125 272.839844 651.441406 269.949219 L 699.589844 230.957031 C 705.0625 226.539062 713.117188 226.539062 718.578125 230.957031 L 766.882812 269.949219 C 770.523438 272.839844 772.496094 277.105469 772.496094 281.832031 L 772.496094 364.390625 C 772.496094 368.65625 768.855469 372.316406 764.457031 372.316406 "/>
</g>
<g clip-path="url(#clip23)" clip-rule="nonzero">
<path style=" stroke:none;fill-rule:nonzero;fill:rgb(58.039856%,69.40918%,67.449951%);fill-opacity:1;" d="M 526.253906 446.78125 L 498.058594 446.78125 C 496.457031 446.78125 495.136719 445.453125 495.136719 443.851562 C 495.136719 442.246094 496.457031 440.925781 498.058594 440.925781 L 523.335938 440.925781 L 523.335938 414.074219 L 506.207031 400.207031 L 489.078125 414.074219 L 489.078125 443.851562 C 489.078125 445.453125 487.753906 446.78125 486.160156 446.78125 C 484.558594 446.78125 483.238281 445.453125 483.238281 443.851562 L 483.238281 413.960938 C 483.238281 412.304688 484.011719 410.699219 485.277344 409.652344 L 502.734375 395.511719 C 504.71875 393.90625 507.640625 393.90625 509.621094 395.511719 L 527.132812 409.652344 C 528.453125 410.699219 529.171875 412.246094 529.171875 413.960938 L 529.171875 443.90625 C 529.171875 445.453125 527.851562 446.78125 526.253906 446.78125 "/>
</g>
<g clip-path="url(#clip24)" clip-rule="nonzero">
<path style=" stroke:none;fill-rule:nonzero;fill:rgb(58.039856%,69.40918%,67.449951%);fill-opacity:1;" d="M 436.316406 462.164062 L 404.9375 462.164062 C 403.160156 462.164062 401.691406 460.703125 401.691406 458.941406 C 401.691406 457.175781 403.160156 455.722656 404.9375 455.722656 L 433.070312 455.722656 L 433.070312 426.183594 L 414.007812 410.929688 L 394.949219 426.183594 L 394.949219 458.941406 C 394.949219 460.703125 393.472656 462.164062 391.699219 462.164062 C 389.917969 462.164062 388.449219 460.703125 388.449219 458.941406 L 388.449219 426.0625 C 388.449219 424.238281 389.308594 422.476562 390.714844 421.324219 L 410.144531 405.765625 C 412.351562 404.003906 415.601562 404.003906 417.804688 405.765625 L 437.296875 421.324219 C 438.765625 422.476562 439.5625 424.175781 439.5625 426.0625 L 439.5625 459 C 439.5625 460.703125 438.09375 462.164062 436.316406 462.164062 "/>
</g>
<g clip-path="url(#clip25)" clip-rule="nonzero">
<path style=" stroke:none;fill-rule:nonzero;fill:rgb(10.198975%,30.589294%,27.059937%);fill-opacity:1;" d="M 856.457031 342.679688 L 824.164062 342.679688 C 822.332031 342.679688 820.820312 341.160156 820.820312 339.328125 C 820.820312 337.5 822.332031 335.988281 824.164062 335.988281 L 853.113281 335.988281 L 853.113281 305.300781 L 833.496094 289.449219 L 813.882812 305.300781 L 813.882812 339.328125 C 813.882812 341.160156 812.363281 342.679688 810.539062 342.679688 C 808.707031 342.679688 807.195312 341.160156 807.195312 339.328125 L 807.195312 305.171875 C 807.195312 303.277344 808.078125 301.445312 809.527344 300.246094 L 829.519531 284.085938 C 831.792969 282.253906 835.136719 282.253906 837.40625 284.085938 L 857.460938 300.246094 C 858.972656 301.445312 859.792969 303.210938 859.792969 305.171875 L 859.792969 339.394531 C 859.792969 341.160156 858.28125 342.679688 856.457031 342.679688 "/>
</g>
<g clip-path="url(#clip26)" clip-rule="nonzero">
<path style=" stroke:none;fill-rule:nonzero;fill:rgb(10.198975%,30.589294%,27.059937%);fill-opacity:1;" d="M 867.441406 132.488281 L 789.675781 132.488281 C 785.265625 132.488281 781.621094 128.828125 781.621094 124.40625 C 781.621094 119.988281 785.265625 116.34375 789.675781 116.34375 L 859.390625 116.34375 L 859.390625 42.308594 L 812.152344 4.074219 L 764.914062 42.308594 L 764.914062 124.40625 C 764.914062 128.828125 761.261719 132.488281 756.863281 132.488281 C 752.453125 132.488281 748.808594 128.828125 748.808594 124.40625 L 748.808594 42.003906 C 748.808594 37.429688 750.9375 33.011719 754.425781 30.121094 L 802.574219 -8.871094 C 808.050781 -13.289062 816.101562 -13.289062 821.566406 -8.871094 L 869.867188 30.121094 C 873.507812 33.011719 875.484375 37.277344 875.484375 42.003906 L 875.484375 124.5625 C 875.484375 128.828125 871.839844 132.488281 867.441406 132.488281 "/>
</g>
<g clip-path="url(#clip27)" clip-rule="nonzero">
<path style=" stroke:none;fill-rule:nonzero;fill:rgb(58.039856%,69.40918%,67.449951%);fill-opacity:1;" d="M 993.019531 214.457031 L 879.324219 214.457031 C 872.875 214.457031 867.550781 209.128906 867.550781 202.695312 C 867.550781 196.261719 872.875 190.949219 879.324219 190.949219 L 981.246094 190.949219 L 981.246094 83.164062 L 912.1875 27.492188 L 843.125 83.164062 L 843.125 202.695312 C 843.125 209.128906 837.785156 214.457031 831.351562 214.457031 C 824.90625 214.457031 819.582031 209.128906 819.582031 202.695312 L 819.582031 82.714844 C 819.582031 76.058594 822.691406 69.625 827.792969 65.417969 L 898.183594 8.644531 C 906.1875 2.210938 917.960938 2.210938 925.945312 8.644531 L 996.5625 65.417969 C 1001.886719 69.625 1004.773438 75.832031 1004.773438 82.714844 L 1004.773438 202.917969 C 1004.773438 209.128906 999.449219 214.457031 993.019531 214.457031 "/>
</g>
</g>
</svg>
