<?xml version="1.0" encoding="UTF-8"?>
<svg xmlns="http://www.w3.org/2000/svg" xmlns:xlink="http://www.w3.org/1999/xlink" width="375pt" height="374.999991pt" viewBox="0 0 375 374.999991" version="1.2">
<defs>
<clipPath id="clip1">
  <path d="M 51.746094 37.074219 L 323.246094 37.074219 L 323.246094 337.824219 L 51.746094 337.824219 Z M 51.746094 37.074219 "/>
</clipPath>
</defs>
<g id="surface1">
<path style=" stroke:none;fill-rule:nonzero;fill:rgb(4.708862%,22.349548%,19.60907%);fill-opacity:1;" d="M 177.804688 129.238281 L 215.40625 129.238281 C 218.039062 132.023438 219.898438 135.257812 220.976562 138.941406 C 221.246094 139.96875 221.375 141.011719 221.371094 142.074219 C 221.367188 143.136719 221.226562 144.179688 220.949219 145.203125 C 220.671875 146.226562 220.269531 147.199219 219.742188 148.121094 C 219.210938 149.039062 218.574219 149.878906 217.828125 150.628906 C 217.625 150.875 217.445312 151.136719 217.292969 151.417969 C 217.140625 151.699219 217.015625 151.992188 216.921875 152.296875 C 216.828125 152.601562 216.765625 152.910156 216.730469 153.230469 C 216.699219 153.546875 216.695312 153.863281 216.726562 154.179688 C 216.753906 154.5 216.8125 154.8125 216.90625 155.117188 C 216.996094 155.421875 217.117188 155.714844 217.265625 156 C 217.414062 156.28125 217.585938 156.546875 217.789062 156.792969 C 217.988281 157.039062 218.210938 157.265625 218.457031 157.46875 C 219.34375 158.09375 220.332031 158.382812 221.414062 158.34375 C 222.132812 158.34375 222.820312 158.191406 223.472656 157.886719 C 224.125 157.582031 224.683594 157.152344 225.144531 156.597656 C 226.375 155.242188 227.421875 153.753906 228.285156 152.140625 C 229.148438 150.523438 229.800781 148.828125 230.246094 147.050781 C 230.6875 145.273438 230.910156 143.46875 230.90625 141.636719 C 230.90625 139.804688 230.679688 138 230.230469 136.222656 C 229.386719 133.433594 228.214844 130.789062 226.726562 128.289062 C 225.234375 125.785156 223.460938 123.5 221.414062 121.429688 C 221.320312 119.742188 221.148438 118.066406 220.894531 116.398438 C 220.640625 114.730469 220.3125 113.078125 219.902344 111.441406 C 219.492188 109.804688 219.007812 108.191406 218.445312 106.597656 C 217.882812 105.007812 217.25 103.445312 216.539062 101.917969 C 215.828125 100.386719 215.046875 98.890625 214.195312 97.4375 C 213.34375 95.980469 212.425781 94.566406 211.441406 93.199219 C 210.457031 91.828125 209.40625 90.507812 208.296875 89.238281 C 207.1875 87.96875 206.019531 86.753906 204.792969 85.597656 C 203.570312 84.4375 202.292969 83.339844 200.960938 82.304688 C 199.632812 81.265625 198.257812 80.292969 196.835938 79.386719 C 195.414062 78.480469 193.953125 77.644531 192.453125 76.875 C 190.949219 76.105469 189.417969 75.410156 187.851562 74.789062 C 186.28125 74.167969 184.691406 73.621094 183.070312 73.148438 C 181.453125 72.679688 179.816406 72.285156 178.160156 71.96875 C 176.503906 71.652344 174.835938 71.417969 173.160156 71.261719 C 171.480469 71.105469 169.796875 71.027344 168.113281 71.027344 L 129.347656 71.027344 C 129.03125 71.027344 128.714844 71.058594 128.402344 71.121094 C 128.089844 71.183594 127.789062 71.277344 127.496094 71.398438 C 127.199219 71.519531 126.921875 71.667969 126.65625 71.847656 C 126.390625 72.023438 126.148438 72.222656 125.921875 72.449219 C 125.695312 72.675781 125.496094 72.917969 125.320312 73.183594 C 125.144531 73.449219 124.992188 73.730469 124.871094 74.023438 C 124.75 74.316406 124.65625 74.621094 124.597656 74.933594 C 124.535156 75.246094 124.503906 75.5625 124.503906 75.878906 C 124.503906 77.628906 124.589844 79.371094 124.757812 81.109375 C 124.929688 82.847656 125.1875 84.574219 125.527344 86.289062 C 125.867188 88.003906 126.292969 89.695312 126.796875 91.367188 C 127.304688 93.042969 127.890625 94.683594 128.558594 96.300781 C 129.226562 97.914062 129.972656 99.492188 130.796875 101.03125 C 131.621094 102.574219 132.515625 104.070312 133.484375 105.523438 C 134.457031 106.976562 135.496094 108.378906 136.601562 109.730469 C 137.710938 111.082031 138.878906 112.375 140.113281 113.609375 C 141.347656 114.847656 142.640625 116.019531 143.988281 117.125 C 145.339844 118.234375 146.738281 119.273438 148.191406 120.246094 C 149.644531 121.21875 151.136719 122.113281 152.679688 122.9375 C 154.21875 123.761719 155.792969 124.507812 157.40625 125.175781 C 159.019531 125.84375 160.660156 126.433594 162.332031 126.941406 C 164 127.449219 165.691406 127.871094 167.40625 128.214844 C 169.117188 128.554688 170.84375 128.808594 172.578125 128.980469 C 174.316406 129.152344 176.058594 129.238281 177.804688 129.238281 Z M 168.113281 80.730469 C 169.269531 80.730469 170.421875 80.777344 171.574219 80.867188 C 172.726562 80.960938 173.875 81.097656 175.015625 81.28125 C 176.15625 81.464844 177.289062 81.695312 178.414062 81.96875 C 179.535156 82.242188 180.648438 82.558594 181.746094 82.921875 C 182.84375 83.28125 183.925781 83.6875 184.992188 84.136719 C 186.058594 84.582031 187.105469 85.074219 188.132812 85.605469 C 189.160156 86.136719 190.164062 86.707031 191.144531 87.320312 C 192.125 87.929688 193.082031 88.578125 194.011719 89.265625 C 194.941406 89.953125 195.84375 90.675781 196.714844 91.4375 C 197.589844 92.195312 198.429688 92.988281 199.238281 93.816406 C 200.046875 94.640625 200.824219 95.5 201.566406 96.386719 C 202.308594 97.273438 203.011719 98.191406 203.679688 99.132812 C 204.347656 100.078125 204.980469 101.046875 205.570312 102.042969 C 206.164062 103.035156 206.714844 104.050781 207.226562 105.089844 C 207.738281 106.128906 208.207031 107.183594 208.632812 108.261719 C 209.058594 109.335938 209.445312 110.425781 209.785156 111.53125 C 197.277344 103.023438 183.949219 96.085938 169.808594 90.722656 C 169.507812 90.613281 169.203125 90.53125 168.886719 90.480469 C 168.574219 90.429688 168.253906 90.410156 167.9375 90.421875 C 167.617188 90.433594 167.304688 90.476562 166.992188 90.546875 C 166.683594 90.621094 166.382812 90.726562 166.089844 90.859375 C 165.800781 90.992188 165.527344 91.152344 165.269531 91.339844 C 165.007812 91.523438 164.769531 91.734375 164.554688 91.96875 C 164.335938 92.203125 164.144531 92.457031 163.976562 92.726562 C 163.808594 93 163.667969 93.285156 163.558594 93.585938 C 163.445312 93.882812 163.367188 94.191406 163.316406 94.507812 C 163.261719 94.824219 163.242188 95.140625 163.253906 95.460938 C 163.265625 95.777344 163.308594 96.09375 163.382812 96.40625 C 163.457031 96.714844 163.558594 97.015625 163.691406 97.308594 C 163.824219 97.597656 163.984375 97.871094 164.171875 98.132812 C 164.359375 98.390625 164.570312 98.628906 164.800781 98.847656 C 165.035156 99.0625 165.289062 99.257812 165.5625 99.425781 C 165.832031 99.589844 166.117188 99.730469 166.417969 99.84375 C 179.773438 104.949219 192.371094 111.515625 204.210938 119.535156 L 177.804688 119.535156 C 176.476562 119.535156 175.152344 119.476562 173.832031 119.355469 C 172.511719 119.230469 171.199219 119.050781 169.894531 118.808594 C 168.589844 118.566406 167.300781 118.265625 166.023438 117.90625 C 164.746094 117.546875 163.488281 117.132812 162.25 116.65625 C 161.011719 116.183594 159.796875 115.652344 158.605469 115.066406 C 157.414062 114.484375 156.253906 113.84375 155.121094 113.152344 C 153.988281 112.460938 152.886719 111.71875 151.824219 110.929688 C 150.757812 110.136719 149.730469 109.296875 148.742188 108.414062 C 147.753906 107.527344 146.808594 106.597656 145.90625 105.625 C 145 104.65625 144.144531 103.644531 143.332031 102.59375 C 142.519531 101.542969 141.757812 100.457031 141.046875 99.339844 C 140.332031 98.21875 139.671875 97.066406 139.0625 95.886719 C 138.457031 94.707031 137.902344 93.503906 137.40625 92.273438 C 136.90625 91.039062 136.464844 89.789062 136.082031 88.519531 C 135.699219 87.246094 135.371094 85.960938 135.105469 84.660156 C 134.839844 83.359375 134.632812 82.050781 134.484375 80.730469 Z M 168.113281 80.730469 "/>
<g clip-path="url(#clip1)" clip-rule="nonzero">
<path style=" stroke:none;fill-rule:nonzero;fill:rgb(4.708862%,22.349548%,19.60907%);fill-opacity:1;" d="M 56.664062 337.824219 L 298.941406 337.824219 C 299.257812 337.824219 299.574219 337.792969 299.886719 337.730469 C 300.199219 337.667969 300.5 337.574219 300.796875 337.453125 C 301.089844 337.332031 301.367188 337.183594 301.632812 337.003906 C 301.898438 336.828125 302.144531 336.628906 302.367188 336.402344 C 302.59375 336.175781 302.792969 335.933594 302.96875 335.667969 C 303.148438 335.402344 303.296875 335.121094 303.417969 334.828125 C 303.539062 334.535156 303.632812 334.230469 303.695312 333.917969 C 303.757812 333.605469 303.785156 333.289062 303.785156 332.972656 L 303.785156 303.867188 C 303.785156 303.550781 303.757812 303.234375 303.695312 302.921875 C 303.632812 302.609375 303.539062 302.304688 303.417969 302.011719 C 303.296875 301.71875 303.148438 301.4375 302.96875 301.171875 C 302.792969 300.90625 302.59375 300.664062 302.367188 300.4375 C 302.144531 300.210938 301.898438 300.011719 301.632812 299.835938 C 301.367188 299.65625 301.089844 299.507812 300.796875 299.386719 C 300.5 299.265625 300.199219 299.171875 299.886719 299.109375 C 299.574219 299.046875 299.257812 299.015625 298.941406 299.015625 L 279.558594 299.015625 L 279.558594 255.359375 C 281.042969 255.210938 282.515625 254.992188 283.980469 254.707031 C 285.441406 254.421875 286.890625 254.070312 288.320312 253.652344 C 289.75 253.230469 291.160156 252.75 292.546875 252.199219 C 293.929688 251.648438 295.289062 251.039062 296.617188 250.363281 C 297.949219 249.6875 299.246094 248.953125 300.507812 248.160156 C 301.769531 247.367188 302.992188 246.515625 304.175781 245.605469 C 305.359375 244.699219 306.496094 243.738281 307.59375 242.726562 C 308.6875 241.714844 309.734375 240.652344 310.730469 239.542969 C 311.726562 238.433594 312.671875 237.28125 313.5625 236.085938 C 314.453125 234.890625 315.289062 233.65625 316.066406 232.382812 C 316.84375 231.109375 317.558594 229.800781 318.214844 228.460938 C 318.871094 227.121094 319.464844 225.753906 319.996094 224.359375 C 320.527344 222.964844 320.992188 221.550781 321.390625 220.113281 C 321.792969 218.671875 322.125 217.222656 322.390625 215.753906 C 322.65625 214.285156 322.855469 212.804688 322.984375 211.320312 C 323.117188 209.832031 323.175781 208.34375 323.167969 206.851562 L 323.167969 148.640625 C 323.167969 147.15625 323.101562 145.671875 322.964844 144.1875 C 322.828125 142.707031 322.625 141.238281 322.351562 139.773438 C 322.082031 138.3125 321.742188 136.867188 321.339844 135.433594 C 320.933594 134.003906 320.464844 132.59375 319.929688 131.207031 C 319.398438 129.820312 318.800781 128.457031 318.140625 127.125 C 317.484375 125.792969 316.765625 124.492188 315.984375 123.226562 C 315.207031 121.957031 314.371094 120.730469 313.480469 119.539062 C 312.589844 118.351562 311.644531 117.203125 310.648438 116.101562 C 309.652344 115 308.609375 113.945312 307.515625 112.9375 C 306.421875 111.929688 305.285156 110.976562 304.101562 110.074219 C 302.921875 109.171875 301.699219 108.324219 300.441406 107.535156 C 299.183594 106.746094 297.890625 106.015625 296.566406 105.34375 C 295.238281 104.675781 293.882812 104.066406 292.503906 103.519531 C 291.121094 102.972656 289.71875 102.492188 288.289062 102.078125 C 286.863281 101.660156 285.421875 101.308594 283.964844 101.023438 C 282.503906 100.742188 281.039062 100.523438 279.558594 100.375 L 279.558594 41.925781 C 279.558594 41.605469 279.527344 41.289062 279.464844 40.976562 C 279.402344 40.664062 279.3125 40.363281 279.191406 40.066406 C 279.070312 39.773438 278.917969 39.492188 278.742188 39.230469 C 278.566406 38.964844 278.363281 38.71875 278.140625 38.492188 C 277.914062 38.269531 277.671875 38.066406 277.40625 37.890625 C 277.140625 37.714844 276.863281 37.5625 276.566406 37.441406 C 276.273438 37.320312 275.972656 37.230469 275.660156 37.167969 C 275.347656 37.105469 275.03125 37.074219 274.714844 37.074219 L 80.894531 37.074219 C 80.574219 37.074219 80.261719 37.105469 79.949219 37.167969 C 79.636719 37.230469 79.332031 37.320312 79.039062 37.441406 C 78.746094 37.5625 78.464844 37.714844 78.203125 37.890625 C 77.9375 38.066406 77.691406 38.269531 77.46875 38.492188 C 77.242188 38.71875 77.042969 38.964844 76.863281 39.230469 C 76.6875 39.492188 76.539062 39.773438 76.417969 40.066406 C 76.296875 40.363281 76.203125 40.664062 76.140625 40.976562 C 76.078125 41.289062 76.046875 41.605469 76.046875 41.925781 L 76.046875 299.015625 L 56.664062 299.015625 C 56.347656 299.015625 56.03125 299.046875 55.71875 299.109375 C 55.410156 299.171875 55.105469 299.265625 54.8125 299.386719 C 54.515625 299.507812 54.238281 299.65625 53.972656 299.835938 C 53.710938 300.011719 53.464844 300.210938 53.238281 300.4375 C 53.015625 300.664062 52.8125 300.90625 52.636719 301.171875 C 52.460938 301.4375 52.3125 301.71875 52.1875 302.011719 C 52.066406 302.304688 51.976562 302.609375 51.914062 302.921875 C 51.851562 303.234375 51.820312 303.550781 51.820312 303.867188 L 51.820312 332.972656 C 51.820312 333.289062 51.851562 333.605469 51.914062 333.917969 C 51.976562 334.230469 52.066406 334.535156 52.1875 334.828125 C 52.3125 335.121094 52.460938 335.402344 52.636719 335.667969 C 52.8125 335.933594 53.015625 336.175781 53.238281 336.402344 C 53.464844 336.628906 53.710938 336.828125 53.972656 337.003906 C 54.238281 337.183594 54.515625 337.332031 54.8125 337.453125 C 55.105469 337.574219 55.410156 337.667969 55.71875 337.730469 C 56.03125 337.792969 56.347656 337.824219 56.664062 337.824219 Z M 279.558594 110.175781 C 280.71875 110.320312 281.867188 110.519531 283.007812 110.769531 C 284.148438 111.019531 285.273438 111.320312 286.386719 111.671875 C 287.5 112.023438 288.597656 112.425781 289.671875 112.875 C 290.75 113.328125 291.804688 113.824219 292.835938 114.371094 C 293.867188 114.917969 294.875 115.511719 295.851562 116.148438 C 296.832031 116.785156 297.777344 117.464844 298.695312 118.1875 C 299.613281 118.910156 300.496094 119.675781 301.34375 120.476562 C 302.191406 121.28125 303.003906 122.121094 303.773438 122.996094 C 304.546875 123.871094 305.28125 124.78125 305.96875 125.722656 C 306.660156 126.664062 307.308594 127.636719 307.910156 128.636719 C 308.511719 129.640625 309.070312 130.664062 309.578125 131.714844 C 310.089844 132.765625 310.550781 133.839844 310.964844 134.933594 C 311.378906 136.023438 311.742188 137.132812 312.054688 138.261719 C 312.367188 139.386719 312.628906 140.523438 312.839844 141.671875 C 313.050781 142.824219 313.210938 143.980469 313.316406 145.144531 C 313.421875 146.308594 313.476562 147.472656 313.476562 148.640625 L 313.476562 206.851562 C 313.476562 208.019531 313.421875 209.1875 313.316406 210.351562 C 313.210938 211.515625 313.050781 212.671875 312.839844 213.820312 C 312.628906 214.96875 312.367188 216.105469 312.054688 217.234375 C 311.742188 218.359375 311.378906 219.46875 310.964844 220.5625 C 310.550781 221.652344 310.089844 222.726562 309.578125 223.777344 C 309.070312 224.828125 308.511719 225.855469 307.910156 226.855469 C 307.308594 227.855469 306.660156 228.828125 305.96875 229.769531 C 305.28125 230.710938 304.546875 231.621094 303.773438 232.496094 C 303.003906 233.375 302.191406 234.214844 301.34375 235.015625 C 300.496094 235.820312 299.613281 236.582031 298.695312 237.304688 C 297.777344 238.027344 296.832031 238.707031 295.851562 239.34375 C 294.875 239.984375 293.867188 240.574219 292.835938 241.121094 C 291.804688 241.667969 290.75 242.164062 289.671875 242.617188 C 288.597656 243.066406 287.5 243.46875 286.386719 243.820312 C 285.273438 244.171875 284.148438 244.472656 283.007812 244.722656 C 281.867188 244.972656 280.71875 245.171875 279.558594 245.316406 Z M 85.738281 46.773438 L 269.867188 46.773438 L 269.867188 245.65625 L 206.390625 245.65625 C 206.117188 244.296875 205.726562 242.972656 205.21875 241.679688 C 204.714844 240.390625 204.105469 239.148438 203.390625 237.960938 C 202.671875 236.773438 201.859375 235.65625 200.949219 234.609375 C 200.042969 233.5625 199.050781 232.597656 197.976562 231.722656 C 196.902344 230.84375 195.761719 230.066406 194.554688 229.382812 C 193.347656 228.703125 192.089844 228.128906 190.785156 227.664062 C 189.480469 227.195312 188.144531 226.84375 186.777344 226.609375 C 185.410156 226.371094 184.035156 226.253906 182.648438 226.253906 L 153.574219 226.253906 C 153.257812 226.253906 152.941406 226.285156 152.628906 226.347656 C 152.320312 226.410156 152.015625 226.503906 151.722656 226.625 C 151.429688 226.746094 151.148438 226.894531 150.882812 227.070312 C 150.621094 227.25 150.375 227.449219 150.148438 227.675781 C 149.925781 227.902344 149.722656 228.144531 149.546875 228.410156 C 149.371094 228.675781 149.222656 228.953125 149.097656 229.25 C 148.976562 229.542969 148.886719 229.847656 148.824219 230.160156 C 148.761719 230.472656 148.730469 230.785156 148.730469 231.105469 L 148.730469 235.957031 L 134.195312 235.957031 C 133.875 235.957031 133.5625 235.988281 133.25 236.050781 C 132.9375 236.113281 132.632812 236.203125 132.339844 236.324219 C 132.046875 236.449219 131.765625 236.597656 131.503906 236.773438 C 131.238281 236.949219 130.992188 237.152344 130.769531 237.378906 C 130.542969 237.601562 130.34375 237.847656 130.164062 238.113281 C 129.988281 238.375 129.839844 238.65625 129.71875 238.949219 C 129.59375 239.246094 129.503906 239.546875 129.441406 239.859375 C 129.378906 240.171875 129.347656 240.488281 129.347656 240.808594 C 129.347656 241.125 129.378906 241.441406 129.441406 241.753906 C 129.503906 242.066406 129.59375 242.367188 129.71875 242.664062 C 129.839844 242.957031 129.988281 243.238281 130.164062 243.503906 C 130.34375 243.765625 130.542969 244.011719 130.769531 244.238281 C 130.992188 244.460938 131.238281 244.664062 131.503906 244.839844 C 131.765625 245.015625 132.046875 245.167969 132.339844 245.289062 C 132.632812 245.410156 132.9375 245.503906 133.25 245.566406 C 133.5625 245.625 133.875 245.65625 134.195312 245.65625 L 148.730469 245.65625 L 148.730469 255.359375 L 134.195312 255.359375 C 133.875 255.359375 133.5625 255.390625 133.25 255.453125 C 132.9375 255.515625 132.632812 255.605469 132.339844 255.730469 C 132.046875 255.851562 131.765625 256 131.503906 256.175781 C 131.238281 256.355469 130.992188 256.554688 130.769531 256.78125 C 130.542969 257.003906 130.34375 257.25 130.164062 257.515625 C 129.988281 257.78125 129.839844 258.058594 129.71875 258.355469 C 129.59375 258.648438 129.503906 258.953125 129.441406 259.265625 C 129.378906 259.578125 129.347656 259.890625 129.347656 260.210938 C 129.347656 260.527344 129.378906 260.84375 129.441406 261.15625 C 129.503906 261.46875 129.59375 261.773438 129.71875 262.066406 C 129.839844 262.359375 129.988281 262.640625 130.164062 262.90625 C 130.34375 263.171875 130.542969 263.414062 130.769531 263.640625 C 130.992188 263.867188 131.238281 264.066406 131.503906 264.242188 C 131.765625 264.421875 132.046875 264.570312 132.339844 264.691406 C 132.632812 264.8125 132.9375 264.90625 133.25 264.96875 C 133.5625 265.03125 133.875 265.0625 134.195312 265.0625 L 148.730469 265.0625 L 148.730469 269.910156 C 148.730469 270.230469 148.761719 270.546875 148.824219 270.859375 C 148.886719 271.171875 148.976562 271.472656 149.097656 271.769531 C 149.222656 272.0625 149.371094 272.34375 149.546875 272.605469 C 149.722656 272.871094 149.925781 273.117188 150.148438 273.34375 C 150.375 273.566406 150.621094 273.769531 150.882812 273.945312 C 151.148438 274.121094 151.429688 274.273438 151.722656 274.394531 C 152.015625 274.515625 152.320312 274.605469 152.628906 274.667969 C 152.941406 274.730469 153.257812 274.761719 153.574219 274.761719 L 182.648438 274.761719 C 184.035156 274.761719 185.410156 274.644531 186.777344 274.410156 C 188.144531 274.171875 189.476562 273.820312 190.785156 273.355469 C 192.089844 272.890625 193.347656 272.316406 194.554688 271.636719 C 195.761719 270.953125 196.902344 270.175781 197.976562 269.296875 C 199.046875 268.421875 200.039062 267.457031 200.949219 266.410156 C 201.855469 265.363281 202.671875 264.246094 203.386719 263.058594 C 204.105469 261.871094 204.714844 260.628906 205.21875 259.335938 C 205.722656 258.046875 206.113281 256.71875 206.390625 255.359375 L 269.867188 255.359375 L 269.867188 299.015625 L 85.738281 299.015625 Z M 197.1875 250.507812 C 197.1875 251.464844 197.09375 252.410156 196.90625 253.347656 C 196.71875 254.285156 196.445312 255.195312 196.078125 256.078125 C 195.714844 256.960938 195.265625 257.800781 194.734375 258.59375 C 194.207031 259.386719 193.601562 260.125 192.929688 260.796875 C 192.253906 261.472656 191.519531 262.078125 190.726562 262.609375 C 189.929688 263.140625 189.09375 263.585938 188.210938 263.953125 C 187.332031 264.320312 186.421875 264.59375 185.484375 264.78125 C 184.550781 264.96875 183.605469 265.0625 182.648438 265.0625 L 158.421875 265.0625 L 158.421875 235.957031 L 182.648438 235.957031 C 183.605469 235.957031 184.550781 236.050781 185.484375 236.234375 C 186.421875 236.421875 187.332031 236.699219 188.210938 237.0625 C 189.09375 237.429688 189.929688 237.878906 190.726562 238.410156 C 191.519531 238.941406 192.253906 239.542969 192.929688 240.21875 C 193.601562 240.894531 194.207031 241.628906 194.734375 242.421875 C 195.265625 243.21875 195.714844 244.058594 196.078125 244.941406 C 196.445312 245.824219 196.71875 246.734375 196.90625 247.667969 C 197.09375 248.605469 197.1875 249.554688 197.1875 250.507812 Z M 61.511719 308.71875 L 294.097656 308.71875 L 294.097656 328.121094 L 61.511719 328.121094 Z M 61.511719 308.71875 "/>
</g>
<path style=" stroke:none;fill-rule:nonzero;fill:rgb(4.708862%,22.349548%,19.60907%);fill-opacity:1;" d="M 260.175781 172.894531 L 260.175781 56.476562 C 260.175781 56.15625 260.144531 55.84375 260.085938 55.53125 C 260.023438 55.21875 259.929688 54.914062 259.808594 54.621094 C 259.6875 54.324219 259.539062 54.046875 259.359375 53.78125 C 259.183594 53.515625 258.984375 53.273438 258.757812 53.046875 C 258.53125 52.820312 258.289062 52.621094 258.023438 52.441406 C 257.757812 52.265625 257.480469 52.117188 257.1875 51.996094 C 256.890625 51.871094 256.589844 51.78125 256.277344 51.71875 C 255.964844 51.65625 255.648438 51.625 255.332031 51.625 L 100.277344 51.625 C 99.957031 51.625 99.640625 51.65625 99.332031 51.71875 C 99.019531 51.78125 98.714844 51.871094 98.421875 51.996094 C 98.128906 52.117188 97.847656 52.265625 97.582031 52.441406 C 97.320312 52.621094 97.074219 52.820312 96.847656 53.046875 C 96.625 53.273438 96.421875 53.515625 96.246094 53.78125 C 96.070312 54.046875 95.921875 54.324219 95.796875 54.621094 C 95.675781 54.914062 95.585938 55.21875 95.523438 55.53125 C 95.460938 55.84375 95.429688 56.15625 95.429688 56.476562 L 95.429688 172.894531 C 95.429688 173.214844 95.460938 173.53125 95.523438 173.84375 C 95.585938 174.15625 95.675781 174.457031 95.796875 174.753906 C 95.921875 175.046875 96.070312 175.324219 96.246094 175.589844 C 96.421875 175.855469 96.625 176.101562 96.847656 176.324219 C 97.074219 176.550781 97.320312 176.753906 97.582031 176.929688 C 97.847656 177.105469 98.128906 177.253906 98.421875 177.378906 C 98.714844 177.5 99.019531 177.589844 99.332031 177.652344 C 99.640625 177.714844 99.957031 177.746094 100.277344 177.746094 L 255.332031 177.746094 C 255.648438 177.746094 255.964844 177.714844 256.277344 177.652344 C 256.589844 177.589844 256.890625 177.5 257.1875 177.378906 C 257.480469 177.253906 257.757812 177.105469 258.023438 176.929688 C 258.289062 176.753906 258.53125 176.550781 258.757812 176.324219 C 258.984375 176.101562 259.183594 175.855469 259.359375 175.589844 C 259.539062 175.324219 259.6875 175.046875 259.808594 174.753906 C 259.929688 174.457031 260.023438 174.15625 260.085938 173.84375 C 260.144531 173.53125 260.175781 173.214844 260.175781 172.894531 Z M 250.488281 168.046875 L 105.121094 168.046875 L 105.121094 61.328125 L 250.488281 61.328125 Z M 250.488281 168.046875 "/>
</g>
</svg>
