<?xml version="1.0" encoding="UTF-8"?>
<svg xmlns="http://www.w3.org/2000/svg" xmlns:xlink="http://www.w3.org/1999/xlink" width="810pt" height="809.999993pt" viewBox="0 0 810 809.999993" version="1.2">
<defs>
<clipPath id="clip1">
  <path d="M 108.671875 108.671875 L 701.171875 108.671875 L 701.171875 307 L 108.671875 307 Z M 108.671875 108.671875 "/>
</clipPath>
<clipPath id="clip2">
  <path d="M 108.671875 577 L 701 577 L 701 701.171875 L 108.671875 701.171875 Z M 108.671875 577 "/>
</clipPath>
<clipPath id="clip3">
  <path d="M 123.671875 123.671875 L 716.171875 123.671875 L 716.171875 322 L 123.671875 322 Z M 123.671875 123.671875 "/>
</clipPath>
<clipPath id="clip4">
  <path d="M 123.671875 592 L 716 592 L 716 716.171875 L 123.671875 716.171875 Z M 123.671875 592 "/>
</clipPath>
</defs>
<g id="surface1">
<rect x="0" y="0" width="810" height="809.999993" style="fill:rgb(100%,100%,100%);fill-opacity:1;stroke:none;"/>
<rect x="0" y="0" width="810" height="809.999993" style="fill:rgb(79.219055%,84.709167%,83.918762%);fill-opacity:1;stroke:none;"/>
<path style=" stroke:none;fill-rule:nonzero;fill:rgb(30.589294%,10.198975%,13.729858%);fill-opacity:1;" d="M 515.769531 528.359375 C 511.152344 528.359375 506.855469 525.792969 504.734375 521.546875 L 454.050781 420.203125 L 454.050781 516.015625 C 454.050781 522.828125 448.519531 528.359375 441.707031 528.359375 C 434.890625 528.359375 429.363281 522.828125 429.363281 516.015625 L 429.363281 367.890625 C 429.363281 362.164062 433.289062 357.175781 438.867188 355.867188 C 444.519531 354.609375 450.199219 357.25 452.765625 362.359375 L 503.449219 463.703125 L 503.449219 367.890625 C 503.449219 361.078125 508.980469 355.546875 515.792969 355.546875 C 522.605469 355.546875 528.136719 361.078125 528.136719 367.890625 L 528.136719 516.015625 C 528.136719 521.742188 524.210938 526.730469 518.632812 528.039062 C 517.644531 528.261719 516.707031 528.359375 515.769531 528.359375 Z M 515.769531 528.359375 "/>
<path style=" stroke:none;fill-rule:nonzero;fill:rgb(30.589294%,10.198975%,13.729858%);fill-opacity:1;" d="M 392.332031 528.359375 C 387.171875 528.359375 382.355469 525.101562 380.605469 519.917969 L 342.957031 406.921875 L 305.308594 519.917969 C 303.136719 526.410156 296.171875 529.914062 289.679688 527.71875 C 283.210938 525.570312 279.730469 518.582031 281.878906 512.113281 L 331.253906 363.988281 C 334.636719 353.917969 351.324219 353.917969 354.683594 363.988281 L 404.058594 512.113281 C 406.207031 518.582031 402.699219 525.570312 396.257812 527.71875 C 394.949219 528.160156 393.640625 528.359375 392.332031 528.359375 Z M 392.332031 528.359375 "/>
<path style=" stroke:none;fill-rule:nonzero;fill:rgb(30.589294%,10.198975%,13.729858%);fill-opacity:1;" d="M 367.644531 478.984375 L 318.269531 478.984375 C 311.453125 478.984375 305.925781 473.453125 305.925781 466.640625 C 305.925781 459.828125 311.453125 454.296875 318.269531 454.296875 L 367.644531 454.296875 C 374.457031 454.296875 379.988281 459.828125 379.988281 466.640625 C 379.988281 473.453125 374.480469 478.984375 367.644531 478.984375 Z M 367.644531 478.984375 "/>
<path style=" stroke:none;fill-rule:nonzero;fill:rgb(30.589294%,10.198975%,13.729858%);fill-opacity:1;" d="M 207.175781 528.359375 L 170.144531 528.359375 C 163.328125 528.359375 157.800781 522.828125 157.800781 516.015625 L 157.800781 367.890625 C 157.800781 361.078125 163.328125 355.546875 170.144531 355.546875 L 207.175781 355.546875 C 234.40625 355.546875 256.550781 377.691406 256.550781 404.921875 C 256.550781 419.660156 250.058594 432.894531 239.785156 441.953125 C 250.082031 451.011719 256.550781 464.246094 256.550781 478.984375 C 256.550781 506.214844 234.40625 528.359375 207.175781 528.359375 Z M 182.488281 503.671875 L 207.175781 503.671875 C 220.800781 503.671875 231.863281 492.585938 231.863281 478.984375 C 231.863281 465.382812 220.800781 454.296875 207.175781 454.296875 L 182.488281 454.296875 Z M 182.488281 429.609375 L 207.175781 429.609375 C 220.800781 429.609375 231.863281 418.523438 231.863281 404.921875 C 231.863281 391.320312 220.800781 380.234375 207.175781 380.234375 L 182.488281 380.234375 Z M 182.488281 429.609375 "/>
<path style=" stroke:none;fill-rule:nonzero;fill:rgb(30.589294%,10.198975%,13.729858%);fill-opacity:1;" d="M 565.144531 528.359375 C 558.328125 528.359375 552.800781 522.828125 552.800781 516.015625 L 552.800781 367.890625 C 552.800781 361.078125 558.328125 355.546875 565.144531 355.546875 C 571.957031 355.546875 577.488281 361.078125 577.488281 367.890625 L 577.488281 516.015625 C 577.488281 522.828125 571.980469 528.359375 565.144531 528.359375 Z M 565.144531 528.359375 "/>
<path style=" stroke:none;fill-rule:nonzero;fill:rgb(30.589294%,10.198975%,13.729858%);fill-opacity:1;" d="M 639.207031 528.359375 C 635.675781 528.359375 632.171875 526.851562 629.726562 523.914062 L 568.007812 449.851562 C 564.179688 445.261719 564.179688 438.621094 568.007812 434.027344 L 629.726562 359.964844 C 634.09375 354.730469 641.898438 354.066406 647.105469 358.386719 C 652.339844 362.753906 653.03125 370.53125 648.660156 375.789062 L 593.535156 441.953125 L 648.660156 508.117188 C 653.03125 513.347656 652.316406 521.148438 647.105469 525.519531 C 644.808594 527.421875 642.019531 528.359375 639.207031 528.359375 Z M 639.207031 528.359375 "/>
<g clip-path="url(#clip1)" clip-rule="nonzero">
<path style=" stroke:none;fill-rule:nonzero;fill:rgb(30.589294%,10.198975%,13.729858%);fill-opacity:1;" d="M 689.074219 306.171875 C 688.976562 306.171875 688.777344 306.195312 688.582031 306.171875 L 120.769531 306.171875 C 115.214844 306.171875 110.300781 302.445312 108.867188 297.039062 C 107.386719 291.65625 109.734375 285.976562 114.546875 283.136719 L 410.796875 110.324219 C 414.796875 108.003906 419.734375 108.105469 423.660156 110.574219 L 693.417969 282.25 C 698.085938 284.027344 701.417969 288.542969 701.417969 293.828125 C 701.417969 300.640625 695.886719 306.171875 689.074219 306.171875 Z M 166.441406 281.484375 L 646.21875 281.484375 L 416.746094 135.457031 Z M 166.441406 281.484375 "/>
</g>
<g clip-path="url(#clip2)" clip-rule="nonzero">
<path style=" stroke:none;fill-rule:nonzero;fill:rgb(30.589294%,10.198975%,13.729858%);fill-opacity:1;" d="M 688.582031 701.171875 L 120.769531 701.171875 C 113.953125 701.171875 108.425781 695.640625 108.425781 688.828125 L 108.425781 590.078125 C 108.425781 583.265625 113.953125 577.734375 120.769531 577.734375 L 688.582031 577.734375 C 695.394531 577.734375 700.925781 583.265625 700.925781 590.078125 L 700.925781 688.828125 C 700.925781 695.640625 695.417969 701.171875 688.582031 701.171875 Z M 133.113281 676.484375 L 676.238281 676.484375 L 676.238281 602.421875 L 133.113281 602.421875 Z M 133.113281 676.484375 "/>
</g>
<path style=" stroke:none;fill-rule:nonzero;fill:rgb(4.708862%,22.349548%,19.60907%);fill-opacity:1;" d="M 530.769531 543.359375 C 526.152344 543.359375 521.855469 540.792969 519.734375 536.546875 L 469.050781 435.203125 L 469.050781 531.015625 C 469.050781 537.828125 463.519531 543.359375 456.707031 543.359375 C 449.890625 543.359375 444.363281 537.828125 444.363281 531.015625 L 444.363281 382.890625 C 444.363281 377.164062 448.289062 372.175781 453.867188 370.867188 C 459.519531 369.609375 465.199219 372.25 467.765625 377.359375 L 518.449219 478.703125 L 518.449219 382.890625 C 518.449219 376.078125 523.980469 370.546875 530.792969 370.546875 C 537.605469 370.546875 543.136719 376.078125 543.136719 382.890625 L 543.136719 531.015625 C 543.136719 536.742188 539.210938 541.730469 533.632812 543.039062 C 532.644531 543.261719 531.707031 543.359375 530.769531 543.359375 Z M 530.769531 543.359375 "/>
<path style=" stroke:none;fill-rule:nonzero;fill:rgb(4.708862%,22.349548%,19.60907%);fill-opacity:1;" d="M 407.332031 543.359375 C 402.171875 543.359375 397.355469 540.101562 395.605469 534.917969 L 357.957031 421.921875 L 320.308594 534.917969 C 318.136719 541.410156 311.171875 544.914062 304.679688 542.71875 C 298.210938 540.570312 294.730469 533.582031 296.878906 527.113281 L 346.253906 378.988281 C 349.636719 368.917969 366.324219 368.917969 369.683594 378.988281 L 419.058594 527.113281 C 421.207031 533.582031 417.699219 540.570312 411.257812 542.71875 C 409.949219 543.160156 408.640625 543.359375 407.332031 543.359375 Z M 407.332031 543.359375 "/>
<path style=" stroke:none;fill-rule:nonzero;fill:rgb(4.708862%,22.349548%,19.60907%);fill-opacity:1;" d="M 382.644531 493.984375 L 333.269531 493.984375 C 326.453125 493.984375 320.925781 488.453125 320.925781 481.640625 C 320.925781 474.828125 326.453125 469.296875 333.269531 469.296875 L 382.644531 469.296875 C 389.457031 469.296875 394.988281 474.828125 394.988281 481.640625 C 394.988281 488.453125 389.480469 493.984375 382.644531 493.984375 Z M 382.644531 493.984375 "/>
<path style=" stroke:none;fill-rule:nonzero;fill:rgb(4.708862%,22.349548%,19.60907%);fill-opacity:1;" d="M 222.175781 543.359375 L 185.144531 543.359375 C 178.328125 543.359375 172.800781 537.828125 172.800781 531.015625 L 172.800781 382.890625 C 172.800781 376.078125 178.328125 370.546875 185.144531 370.546875 L 222.175781 370.546875 C 249.40625 370.546875 271.550781 392.691406 271.550781 419.921875 C 271.550781 434.660156 265.058594 447.894531 254.785156 456.953125 C 265.082031 466.011719 271.550781 479.246094 271.550781 493.984375 C 271.550781 521.214844 249.40625 543.359375 222.175781 543.359375 Z M 197.488281 518.671875 L 222.175781 518.671875 C 235.800781 518.671875 246.863281 507.585938 246.863281 493.984375 C 246.863281 480.382812 235.800781 469.296875 222.175781 469.296875 L 197.488281 469.296875 Z M 197.488281 444.609375 L 222.175781 444.609375 C 235.800781 444.609375 246.863281 433.523438 246.863281 419.921875 C 246.863281 406.320312 235.800781 395.234375 222.175781 395.234375 L 197.488281 395.234375 Z M 197.488281 444.609375 "/>
<path style=" stroke:none;fill-rule:nonzero;fill:rgb(4.708862%,22.349548%,19.60907%);fill-opacity:1;" d="M 580.144531 543.359375 C 573.328125 543.359375 567.800781 537.828125 567.800781 531.015625 L 567.800781 382.890625 C 567.800781 376.078125 573.328125 370.546875 580.144531 370.546875 C 586.957031 370.546875 592.488281 376.078125 592.488281 382.890625 L 592.488281 531.015625 C 592.488281 537.828125 586.980469 543.359375 580.144531 543.359375 Z M 580.144531 543.359375 "/>
<path style=" stroke:none;fill-rule:nonzero;fill:rgb(4.708862%,22.349548%,19.60907%);fill-opacity:1;" d="M 654.207031 543.359375 C 650.675781 543.359375 647.171875 541.851562 644.726562 538.914062 L 583.007812 464.851562 C 579.179688 460.261719 579.179688 453.621094 583.007812 449.027344 L 644.726562 374.964844 C 649.09375 369.730469 656.898438 369.066406 662.105469 373.386719 C 667.339844 377.753906 668.03125 385.53125 663.660156 390.789062 L 608.535156 456.953125 L 663.660156 523.117188 C 668.03125 528.347656 667.316406 536.148438 662.105469 540.519531 C 659.808594 542.421875 657.019531 543.359375 654.207031 543.359375 Z M 654.207031 543.359375 "/>
<g clip-path="url(#clip3)" clip-rule="nonzero">
<path style=" stroke:none;fill-rule:nonzero;fill:rgb(4.708862%,22.349548%,19.60907%);fill-opacity:1;" d="M 704.074219 321.171875 C 703.976562 321.171875 703.777344 321.195312 703.582031 321.171875 L 135.769531 321.171875 C 130.214844 321.171875 125.300781 317.445312 123.867188 312.039062 C 122.386719 306.65625 124.734375 300.976562 129.546875 298.136719 L 425.796875 125.324219 C 429.796875 123.003906 434.734375 123.105469 438.660156 125.574219 L 708.417969 297.25 C 713.085938 299.027344 716.417969 303.542969 716.417969 308.828125 C 716.417969 315.640625 710.886719 321.171875 704.074219 321.171875 Z M 181.441406 296.484375 L 661.21875 296.484375 L 431.746094 150.457031 Z M 181.441406 296.484375 "/>
</g>
<g clip-path="url(#clip4)" clip-rule="nonzero">
<path style=" stroke:none;fill-rule:nonzero;fill:rgb(4.708862%,22.349548%,19.60907%);fill-opacity:1;" d="M 703.582031 716.171875 L 135.769531 716.171875 C 128.953125 716.171875 123.425781 710.640625 123.425781 703.828125 L 123.425781 605.078125 C 123.425781 598.265625 128.953125 592.734375 135.769531 592.734375 L 703.582031 592.734375 C 710.394531 592.734375 715.925781 598.265625 715.925781 605.078125 L 715.925781 703.828125 C 715.925781 710.640625 710.417969 716.171875 703.582031 716.171875 Z M 148.113281 691.484375 L 691.238281 691.484375 L 691.238281 617.421875 L 148.113281 617.421875 Z M 148.113281 691.484375 "/>
</g>
</g>
</svg>
