<?xml version="1.0" encoding="UTF-8"?>
<svg xmlns="http://www.w3.org/2000/svg" xmlns:xlink="http://www.w3.org/1999/xlink" width="810pt" height="809.999993pt" viewBox="0 0 810 809.999993" version="1.2">
<defs>
<clipPath id="clip1">
  <path d="M 94.433594 145 L 715.433594 145 L 715.433594 666 L 94.433594 666 Z M 94.433594 145 "/>
</clipPath>
<clipPath id="clip2">
  <path d="M 109.433594 160 L 730.433594 160 L 730.433594 681 L 109.433594 681 Z M 109.433594 160 "/>
</clipPath>
</defs>
<g id="surface1">
<rect x="0" y="0" width="810" height="809.999993" style="fill:rgb(100%,100%,100%);fill-opacity:1;stroke:none;"/>
<rect x="0" y="0" width="810" height="809.999993" style="fill:rgb(79.219055%,84.709167%,83.918762%);fill-opacity:1;stroke:none;"/>
<g clip-path="url(#clip1)" clip-rule="nonzero">
<path style=" stroke:none;fill-rule:nonzero;fill:rgb(30.589294%,10.198975%,13.729858%);fill-opacity:1;" d="M 687.871094 215.0625 C 687.859375 222.757812 681.625 229.007812 673.9375 229.007812 L 164.082031 229.007812 C 156.394531 229.007812 150.148438 222.769531 150.148438 215.0625 C 150.148438 207.371094 156.382812 201.117188 164.082031 201.117188 L 673.9375 201.117188 C 681.625 201.117188 687.871094 207.359375 687.871094 215.0625 Z M 715.433594 419.304688 L 715.433594 502.949219 C 715.433594 510.617188 709.199219 516.871094 701.496094 516.871094 L 687.882812 516.871094 L 687.882812 651.386719 C 687.859375 659.089844 681.625 665.332031 673.9375 665.332031 L 164.082031 665.332031 C 125.679688 665.332031 94.433594 634.058594 94.433594 595.628906 L 94.433594 215.0625 C 94.433594 176.632812 125.679688 145.363281 164.082031 145.363281 L 673.9375 145.363281 C 681.625 145.363281 687.871094 151.601562 687.871094 159.308594 C 687.871094 167.015625 681.636719 173.253906 673.9375 173.253906 L 164.082031 173.253906 C 141.058594 173.253906 122.328125 191.984375 122.289062 215.027344 C 122.289062 215.039062 122.304688 215.050781 122.304688 215.0625 C 122.304688 238.117188 141.042969 256.886719 164.097656 256.886719 L 673.949219 256.886719 C 681.636719 256.886719 687.882812 263.125 687.882812 270.832031 L 687.882812 405.359375 L 701.496094 405.359375 C 709.183594 405.359375 715.433594 411.597656 715.433594 419.304688 Z M 687.574219 433.226562 L 674.011719 433.226562 C 673.988281 433.226562 673.972656 433.238281 673.949219 433.238281 C 673.925781 433.238281 673.914062 433.226562 673.886719 433.226562 L 569.160156 433.226562 C 561.722656 433.226562 554.71875 436.121094 549.464844 441.390625 C 544.199219 446.660156 541.304688 453.65625 541.304688 461.101562 C 541.304688 468.546875 544.199219 475.558594 549.464844 480.8125 C 554.730469 486.085938 561.722656 488.980469 569.160156 488.980469 L 687.574219 488.980469 Z M 660.015625 516.871094 L 569.160156 516.871094 C 554.28125 516.871094 540.285156 511.066406 529.765625 500.539062 C 519.234375 490 513.445312 476.003906 513.445312 461.113281 C 513.445312 446.226562 519.246094 432.21875 529.765625 421.691406 C 540.285156 411.164062 554.28125 405.359375 569.160156 405.359375 L 660.015625 405.359375 L 660.015625 284.765625 L 164.082031 284.765625 C 160.554688 284.765625 157.117188 284.414062 153.738281 283.90625 C 153.09375 283.808594 152.433594 283.71875 151.789062 283.609375 C 148.519531 283.023438 145.34375 282.226562 142.25 281.210938 C 141.726562 281.035156 141.230469 280.835938 140.722656 280.648438 C 137.765625 279.59375 134.898438 278.363281 132.140625 276.933594 C 131.878906 276.796875 131.617188 276.699219 131.355469 276.5625 C 128.488281 275.03125 125.78125 273.253906 123.171875 271.351562 C 122.898438 271.15625 122.574219 271.003906 122.304688 270.804688 L 122.304688 595.644531 C 122.304688 618.699219 141.042969 637.464844 164.097656 637.464844 L 660.015625 637.464844 Z M 569.160156 447.15625 C 561.460938 447.15625 555.226562 453.398438 555.226562 461.101562 C 555.226562 468.808594 561.460938 475.046875 569.160156 475.046875 C 576.863281 475.046875 583.097656 468.808594 583.097656 461.101562 C 583.097656 453.398438 576.863281 447.15625 569.160156 447.15625 Z M 569.160156 447.15625 "/>
</g>
<g clip-path="url(#clip2)" clip-rule="nonzero">
<path style=" stroke:none;fill-rule:nonzero;fill:rgb(4.708862%,22.349548%,19.60907%);fill-opacity:1;" d="M 702.871094 230.0625 C 702.859375 237.757812 696.625 244.007812 688.9375 244.007812 L 179.082031 244.007812 C 171.394531 244.007812 165.148438 237.769531 165.148438 230.0625 C 165.148438 222.371094 171.382812 216.117188 179.082031 216.117188 L 688.9375 216.117188 C 696.625 216.117188 702.871094 222.359375 702.871094 230.0625 Z M 730.433594 434.304688 L 730.433594 517.949219 C 730.433594 525.617188 724.199219 531.871094 716.496094 531.871094 L 702.882812 531.871094 L 702.882812 666.386719 C 702.859375 674.089844 696.625 680.332031 688.9375 680.332031 L 179.082031 680.332031 C 140.679688 680.332031 109.433594 649.058594 109.433594 610.628906 L 109.433594 230.0625 C 109.433594 191.632812 140.679688 160.363281 179.082031 160.363281 L 688.9375 160.363281 C 696.625 160.363281 702.871094 166.601562 702.871094 174.308594 C 702.871094 182.015625 696.636719 188.253906 688.9375 188.253906 L 179.082031 188.253906 C 156.058594 188.253906 137.328125 206.984375 137.289062 230.027344 C 137.289062 230.039062 137.304688 230.050781 137.304688 230.0625 C 137.304688 253.117188 156.042969 271.886719 179.097656 271.886719 L 688.949219 271.886719 C 696.636719 271.886719 702.882812 278.125 702.882812 285.832031 L 702.882812 420.359375 L 716.496094 420.359375 C 724.183594 420.359375 730.433594 426.597656 730.433594 434.304688 Z M 702.574219 448.226562 L 689.011719 448.226562 C 688.988281 448.226562 688.972656 448.238281 688.949219 448.238281 C 688.925781 448.238281 688.914062 448.226562 688.886719 448.226562 L 584.160156 448.226562 C 576.722656 448.226562 569.71875 451.121094 564.464844 456.390625 C 559.199219 461.660156 556.304688 468.65625 556.304688 476.101562 C 556.304688 483.546875 559.199219 490.558594 564.464844 495.8125 C 569.730469 501.085938 576.722656 503.980469 584.160156 503.980469 L 702.574219 503.980469 Z M 675.015625 531.871094 L 584.160156 531.871094 C 569.28125 531.871094 555.285156 526.066406 544.765625 515.539062 C 534.234375 505 528.445312 491.003906 528.445312 476.113281 C 528.445312 461.226562 534.246094 447.21875 544.765625 436.691406 C 555.285156 426.164062 569.28125 420.359375 584.160156 420.359375 L 675.015625 420.359375 L 675.015625 299.765625 L 179.082031 299.765625 C 175.554688 299.765625 172.117188 299.414062 168.738281 298.90625 C 168.09375 298.808594 167.433594 298.71875 166.789062 298.609375 C 163.519531 298.023438 160.34375 297.226562 157.25 296.210938 C 156.726562 296.035156 156.230469 295.835938 155.722656 295.648438 C 152.765625 294.59375 149.898438 293.363281 147.140625 291.933594 C 146.878906 291.796875 146.617188 291.699219 146.355469 291.5625 C 143.488281 290.03125 140.78125 288.253906 138.171875 286.351562 C 137.898438 286.15625 137.574219 286.003906 137.304688 285.804688 L 137.304688 610.644531 C 137.304688 633.699219 156.042969 652.464844 179.097656 652.464844 L 675.015625 652.464844 Z M 584.160156 462.15625 C 576.460938 462.15625 570.226562 468.398438 570.226562 476.101562 C 570.226562 483.808594 576.460938 490.046875 584.160156 490.046875 C 591.863281 490.046875 598.097656 483.808594 598.097656 476.101562 C 598.097656 468.398438 591.863281 462.15625 584.160156 462.15625 Z M 584.160156 462.15625 "/>
</g>
</g>
</svg>
