<?xml version="1.0" encoding="UTF-8"?>
<svg xmlns="http://www.w3.org/2000/svg" xmlns:xlink="http://www.w3.org/1999/xlink" width="810pt" height="809.999993pt" viewBox="0 0 810 809.999993" version="1.2">
<g id="surface1">
<rect x="0" y="0" width="810" height="809.999993" style="fill:rgb(100%,100%,100%);fill-opacity:1;stroke:none;"/>
<rect x="0" y="0" width="810" height="809.999993" style="fill:rgb(100%,100%,100%);fill-opacity:1;stroke:none;"/>
<rect x="0" y="0" width="810" height="809.999993" style="fill:rgb(79.219055%,84.709167%,83.918762%);fill-opacity:1;stroke:none;"/>
<path style=" stroke:none;fill-rule:nonzero;fill:rgb(30.589294%,10.198975%,13.729858%);fill-opacity:1;" d="M 640.496094 740.683594 L 176.523438 740.683594 C 168.992188 740.683594 162.878906 734.570312 162.878906 727.035156 L 162.878906 399.527344 C 162.878906 391.992188 168.992188 385.878906 176.523438 385.878906 C 184.054688 385.878906 190.171875 391.992188 190.171875 399.527344 L 190.171875 713.390625 L 626.851562 713.390625 L 626.851562 399.527344 C 626.851562 391.992188 632.964844 385.878906 640.496094 385.878906 C 648.03125 385.878906 654.144531 391.992188 654.144531 399.527344 L 654.144531 727.035156 C 654.144531 734.570312 648.03125 740.683594 640.496094 740.683594 Z M 640.496094 740.683594 "/>
<path style=" stroke:none;fill-rule:nonzero;fill:rgb(30.589294%,10.198975%,13.729858%);fill-opacity:1;" d="M 722.375 413.171875 L 94.644531 413.171875 C 89.078125 413.171875 84.058594 409.789062 81.984375 404.628906 C 79.910156 399.472656 81.191406 393.550781 85.203125 389.671875 L 399.066406 89.457031 C 404.335938 84.378906 412.660156 84.378906 417.925781 89.457031 L 731.789062 389.671875 C 735.800781 393.550781 737.085938 399.445312 735.011719 404.628906 C 732.964844 409.789062 727.941406 413.171875 722.375 413.171875 Z M 128.652344 385.878906 L 688.367188 385.878906 L 408.511719 118.195312 Z M 128.652344 385.878906 "/>
<path style=" stroke:none;fill-rule:nonzero;fill:rgb(30.589294%,10.198975%,13.729858%);fill-opacity:1;" d="M 558.621094 740.683594 L 449.449219 740.683594 C 441.917969 740.683594 435.804688 734.570312 435.804688 727.035156 L 435.804688 508.695312 C 435.804688 501.164062 441.917969 495.050781 449.449219 495.050781 L 558.621094 495.050781 C 566.152344 495.050781 572.265625 501.164062 572.265625 508.695312 L 572.265625 727.035156 C 572.265625 734.570312 566.152344 740.683594 558.621094 740.683594 Z M 463.09375 713.390625 L 544.972656 713.390625 L 544.972656 522.34375 L 463.09375 522.34375 Z M 463.09375 713.390625 "/>
<path style=" stroke:none;fill-rule:nonzero;fill:rgb(30.589294%,10.198975%,13.729858%);fill-opacity:1;" d="M 340.277344 604.21875 L 258.402344 604.21875 C 250.867188 604.21875 244.753906 598.105469 244.753906 590.574219 L 244.753906 508.695312 C 244.753906 501.164062 250.867188 495.050781 258.402344 495.050781 L 340.277344 495.050781 C 347.8125 495.050781 353.925781 501.164062 353.925781 508.695312 L 353.925781 590.574219 C 353.925781 598.105469 347.8125 604.21875 340.277344 604.21875 Z M 272.046875 576.929688 L 326.632812 576.929688 L 326.632812 522.34375 L 272.046875 522.34375 Z M 272.046875 576.929688 "/>
<path style=" stroke:none;fill-rule:nonzero;fill:rgb(4.708862%,22.349548%,19.60907%);fill-opacity:1;" d="M 655.496094 755.683594 L 191.523438 755.683594 C 183.992188 755.683594 177.878906 749.570312 177.878906 742.035156 L 177.878906 414.527344 C 177.878906 406.992188 183.992188 400.878906 191.523438 400.878906 C 199.054688 400.878906 205.171875 406.992188 205.171875 414.527344 L 205.171875 728.390625 L 641.851562 728.390625 L 641.851562 414.527344 C 641.851562 406.992188 647.964844 400.878906 655.496094 400.878906 C 663.03125 400.878906 669.144531 406.992188 669.144531 414.527344 L 669.144531 742.035156 C 669.144531 749.570312 663.03125 755.683594 655.496094 755.683594 Z M 655.496094 755.683594 "/>
<path style=" stroke:none;fill-rule:nonzero;fill:rgb(4.708862%,22.349548%,19.60907%);fill-opacity:1;" d="M 737.375 428.171875 L 109.644531 428.171875 C 104.078125 428.171875 99.058594 424.789062 96.984375 419.628906 C 94.910156 414.472656 96.191406 408.550781 100.203125 404.671875 L 414.066406 104.457031 C 419.335938 99.378906 427.660156 99.378906 432.925781 104.457031 L 746.789062 404.671875 C 750.800781 408.550781 752.085938 414.445312 750.011719 419.628906 C 747.964844 424.789062 742.941406 428.171875 737.375 428.171875 Z M 143.652344 400.878906 L 703.367188 400.878906 L 423.511719 133.195312 Z M 143.652344 400.878906 "/>
<path style=" stroke:none;fill-rule:nonzero;fill:rgb(4.708862%,22.349548%,19.60907%);fill-opacity:1;" d="M 573.621094 755.683594 L 464.449219 755.683594 C 456.917969 755.683594 450.804688 749.570312 450.804688 742.035156 L 450.804688 523.695312 C 450.804688 516.164062 456.917969 510.050781 464.449219 510.050781 L 573.621094 510.050781 C 581.152344 510.050781 587.265625 516.164062 587.265625 523.695312 L 587.265625 742.035156 C 587.265625 749.570312 581.152344 755.683594 573.621094 755.683594 Z M 478.09375 728.390625 L 559.972656 728.390625 L 559.972656 537.34375 L 478.09375 537.34375 Z M 478.09375 728.390625 "/>
<path style=" stroke:none;fill-rule:nonzero;fill:rgb(4.708862%,22.349548%,19.60907%);fill-opacity:1;" d="M 355.277344 619.21875 L 273.402344 619.21875 C 265.867188 619.21875 259.753906 613.105469 259.753906 605.574219 L 259.753906 523.695312 C 259.753906 516.164062 265.867188 510.050781 273.402344 510.050781 L 355.277344 510.050781 C 362.8125 510.050781 368.925781 516.164062 368.925781 523.695312 L 368.925781 605.574219 C 368.925781 613.105469 362.8125 619.21875 355.277344 619.21875 Z M 287.046875 591.929688 L 341.632812 591.929688 L 341.632812 537.34375 L 287.046875 537.34375 Z M 287.046875 591.929688 "/>
</g>
</svg>
